<svg width="85" height="55" viewBox="0 0 85 55" fill="none" xmlns="http://www.w3.org/2000/svg">
<circle cx="9" cy="22" r="5" fill="#FF0000"/>
<circle cx="9" cy="41" r="5" fill="#FF0000"/>
<circle cx="9" cy="22" r="5" fill="white"/>
<circle cx="9" cy="41" r="5" fill="white"/>
<circle cx="75" cy="30" r="5" fill="white"/>
<circle cx="42" cy="10" r="5" fill="white"/>
<circle cx="42" cy="30" r="5" fill="white"/>
<circle cx="42" cy="50" r="5" fill="white"/>
<line x1="8.81674" y1="22.5348" x2="41.8167" y2="9.5348" stroke="#FF0000"/>
<line x1="8.65193" y1="41.641" x2="41.6519" y2="9.64105" stroke="#FF0000"/>
<line x1="9.1178" y1="22.5141" x2="42.1178" y2="30.5141" stroke="#24FF00"/>
<line x1="8.84189" y1="41.5257" x2="41.8419" y2="30.5257" stroke="#24FF00"/>
<line x1="41.8684" y1="50.4824" x2="8.86844" y2="41.4824" stroke="#001AFF"/>
<line x1="41.6765" y1="50.3813" x2="8.67651" y2="22.3813" stroke="#001AFF"/>
<line x1="74.7316" y1="30.4218" x2="41.7316" y2="9.42183" stroke="#FFE600"/>
<line x1="75" y1="30.5" x2="42" y2="30.5" stroke="#FFE600"/>
<line x1="75.2592" y1="30.4276" x2="42.2592" y2="50.4276" stroke="#FFE600"/>
<g filter="url(#filter0_d_7_237)">
<path d="M2.07955 18.0515C1.90554 18.0515 1.75047 18.0213 1.61435 17.9609C1.47822 17.8994 1.3705 17.8088 1.29119 17.6893C1.21307 17.5685 1.17401 17.4182 1.17401 17.2383C1.17401 17.0868 1.20182 16.9595 1.25746 16.8565C1.31309 16.7536 1.38885 16.6707 1.48473 16.608C1.58061 16.5452 1.68951 16.4979 1.81143 16.4659C1.93454 16.4339 2.06357 16.4115 2.19851 16.3984C2.35713 16.3819 2.48497 16.3665 2.58203 16.3523C2.6791 16.3369 2.74953 16.3144 2.79332 16.2848C2.83712 16.2552 2.85902 16.2114 2.85902 16.1534V16.1428C2.85902 16.0303 2.82351 15.9433 2.75249 15.8817C2.68265 15.8202 2.58321 15.7894 2.45419 15.7894C2.31806 15.7894 2.20975 15.8196 2.12926 15.88C2.04877 15.9392 1.9955 16.0137 1.96946 16.1037L1.26989 16.0469C1.3054 15.8812 1.37524 15.7379 1.4794 15.6172C1.58357 15.4953 1.71792 15.4018 1.88246 15.3366C2.04818 15.2704 2.23994 15.2372 2.45774 15.2372C2.60926 15.2372 2.75426 15.255 2.89276 15.2905C3.03243 15.326 3.15613 15.381 3.26385 15.4556C3.37275 15.5302 3.45857 15.6261 3.52131 15.7433C3.58404 15.8593 3.61541 15.9983 3.61541 16.1605V18H2.89808V17.6218H2.87678C2.83298 17.707 2.77438 17.7822 2.70099 17.8473C2.6276 17.9112 2.53942 17.9615 2.43643 17.9982C2.33345 18.0337 2.21449 18.0515 2.07955 18.0515ZM2.29616 17.5295C2.40743 17.5295 2.50568 17.5076 2.59091 17.4638C2.67614 17.4188 2.74302 17.3584 2.79155 17.2827C2.84008 17.2069 2.86435 17.1211 2.86435 17.0252V16.7358C2.84067 16.7512 2.80812 16.7654 2.76669 16.7784C2.72644 16.7902 2.68087 16.8015 2.62997 16.8121C2.57907 16.8216 2.52817 16.8305 2.47727 16.8388C2.42637 16.8459 2.38021 16.8524 2.33878 16.8583C2.25 16.8713 2.17247 16.892 2.10618 16.9205C2.03989 16.9489 1.9884 16.9873 1.9517 17.0359C1.91501 17.0832 1.89666 17.1424 1.89666 17.2134C1.89666 17.3164 1.93395 17.3951 2.00852 17.4496C2.08428 17.5028 2.18016 17.5295 2.29616 17.5295Z" fill="white"/>
</g>
<g filter="url(#filter1_d_7_237)">
<path d="M1.31605 38V34.3636H2.07244V35.7308H2.09553C2.12867 35.6574 2.17661 35.5829 2.23935 35.5071C2.30327 35.4302 2.38613 35.3662 2.48793 35.3153C2.59091 35.2633 2.71875 35.2372 2.87145 35.2372C3.07031 35.2372 3.25379 35.2893 3.42188 35.3935C3.58996 35.4964 3.72431 35.6521 3.82493 35.8604C3.92554 36.0676 3.97585 36.3274 3.97585 36.6399C3.97585 36.9441 3.92673 37.201 3.82848 37.4105C3.73142 37.6188 3.59884 37.7769 3.43075 37.8846C3.26385 37.9911 3.07682 38.0444 2.86967 38.0444C2.72289 38.0444 2.59801 38.0201 2.49503 37.9716C2.39323 37.9231 2.30978 37.8621 2.24467 37.7887C2.17957 37.7141 2.12985 37.639 2.09553 37.5632H2.06179V38H1.31605ZM2.05646 36.6364C2.05646 36.7985 2.07895 36.94 2.12393 37.0607C2.16892 37.1815 2.23402 37.2756 2.31925 37.343C2.40447 37.4093 2.50805 37.4425 2.62997 37.4425C2.75308 37.4425 2.85724 37.4087 2.94247 37.3413C3.0277 37.2726 3.09221 37.1779 3.13601 37.0572C3.18099 36.9353 3.20348 36.795 3.20348 36.6364C3.20348 36.4789 3.18158 36.3404 3.13778 36.2209C3.09399 36.1013 3.02947 36.0078 2.94425 35.9403C2.85902 35.8729 2.75426 35.8391 2.62997 35.8391C2.50687 35.8391 2.4027 35.8717 2.31747 35.9368C2.23343 36.0019 2.16892 36.0942 2.12393 36.2138C2.07895 36.3333 2.05646 36.4742 2.05646 36.6364Z" fill="white"/>
</g>
<g filter="url(#filter2_d_7_237)">
<path d="M36.5341 6.05327C36.2547 6.05327 36.0144 5.99408 35.8132 5.87571C35.6132 5.75616 35.4593 5.59044 35.3516 5.37855C35.245 5.16667 35.1918 4.92282 35.1918 4.64702C35.1918 4.36766 35.2456 4.12263 35.3533 3.91193C35.4622 3.70005 35.6167 3.53492 35.8168 3.41655C36.0168 3.29699 36.2547 3.23722 36.5305 3.23722C36.7685 3.23722 36.9768 3.28042 37.1555 3.36683C37.3343 3.45324 37.4757 3.57457 37.5799 3.73082C37.6841 3.88707 37.7415 4.07055 37.7521 4.28125H37.0384C37.0182 4.14512 36.965 4.03563 36.8786 3.95277C36.7933 3.86873 36.6815 3.8267 36.543 3.8267C36.4258 3.8267 36.3234 3.85866 36.2358 3.92259C36.1494 3.98532 36.0819 4.07706 36.0334 4.1978C35.9848 4.31854 35.9606 4.46473 35.9606 4.63636C35.9606 4.81037 35.9843 4.95833 36.0316 5.08026C36.0801 5.20218 36.1482 5.2951 36.2358 5.35902C36.3234 5.42294 36.4258 5.4549 36.543 5.4549C36.6294 5.4549 36.7069 5.43714 36.7756 5.40163C36.8454 5.36612 36.9028 5.31463 36.9478 5.24716C36.994 5.1785 37.0241 5.09624 37.0384 5.00036H37.7521C37.7403 5.20869 37.6835 5.39216 37.5817 5.55078C37.4811 5.70821 37.342 5.83132 37.1644 5.9201C36.9869 6.00888 36.7768 6.05327 36.5341 6.05327Z" fill="white"/>
</g>
<g filter="url(#filter3_d_7_237)">
<path d="M36.3068 26.0444C36.0997 26.0444 35.9121 25.9911 35.744 25.8846C35.5771 25.7769 35.4445 25.6188 35.3462 25.4105C35.2492 25.201 35.2006 24.9441 35.2006 24.6399C35.2006 24.3274 35.2509 24.0676 35.3516 23.8604C35.4522 23.6521 35.5859 23.4964 35.7528 23.3935C35.9209 23.2893 36.105 23.2372 36.305 23.2372C36.4577 23.2372 36.585 23.2633 36.6868 23.3153C36.7898 23.3662 36.8726 23.4302 36.9354 23.5071C36.9993 23.5829 37.0478 23.6574 37.081 23.7308H37.104V22.3636H37.8587V26H37.1129V25.5632H37.081C37.0455 25.639 36.9951 25.7141 36.93 25.7887C36.8661 25.8621 36.7827 25.9231 36.6797 25.9716C36.5779 26.0201 36.4536 26.0444 36.3068 26.0444ZM36.5465 25.4425C36.6684 25.4425 36.7714 25.4093 36.8555 25.343C36.9407 25.2756 37.0058 25.1815 37.0508 25.0607C37.0969 24.94 37.12 24.7985 37.12 24.6364C37.12 24.4742 37.0975 24.3333 37.0526 24.2138C37.0076 24.0942 36.9425 24.0019 36.8572 23.9368C36.772 23.8717 36.6684 23.8391 36.5465 23.8391C36.4222 23.8391 36.3175 23.8729 36.2322 23.9403C36.147 24.0078 36.0825 24.1013 36.0387 24.2209C35.9949 24.3404 35.973 24.4789 35.973 24.6364C35.973 24.795 35.9949 24.9353 36.0387 25.0572C36.0837 25.1779 36.1482 25.2726 36.2322 25.3413C36.3175 25.4087 36.4222 25.4425 36.5465 25.4425Z" fill="white"/>
</g>
<g filter="url(#filter4_d_7_237)">
<path d="M36.5447 45.0533C36.2642 45.0533 36.0227 44.9964 35.8203 44.8828C35.6191 44.768 35.464 44.6058 35.3551 44.3963C35.2462 44.1856 35.1918 43.9364 35.1918 43.6488C35.1918 43.3683 35.2462 43.122 35.3551 42.9102C35.464 42.6983 35.6173 42.5331 35.815 42.4148C36.0138 42.2964 36.247 42.2372 36.5146 42.2372C36.6945 42.2372 36.862 42.2662 37.017 42.3242C37.1733 42.381 37.3094 42.4669 37.4254 42.5817C37.5426 42.6965 37.6338 42.8409 37.6989 43.0149C37.764 43.1877 37.7965 43.3902 37.7965 43.6222V43.8299H35.4936V43.3612H37.0845C37.0845 43.2522 37.0608 43.1558 37.0135 43.0717C36.9661 42.9877 36.9004 42.922 36.8164 42.8746C36.7335 42.8261 36.6371 42.8018 36.527 42.8018C36.4122 42.8018 36.3104 42.8285 36.2216 42.8817C36.134 42.9338 36.0653 43.0043 36.0156 43.093C35.9659 43.1806 35.9405 43.2783 35.9393 43.386V43.8317C35.9393 43.9666 35.9641 44.0832 36.0138 44.1815C36.0647 44.2797 36.1364 44.3555 36.2287 44.4087C36.321 44.462 36.4305 44.4886 36.5572 44.4886C36.6412 44.4886 36.7182 44.4768 36.788 44.4531C36.8578 44.4295 36.9176 44.3939 36.9673 44.3466C37.017 44.2992 37.0549 44.2412 37.081 44.1726L37.7805 44.2188C37.745 44.3868 37.6722 44.5336 37.5621 44.6591C37.4532 44.7834 37.3124 44.8804 37.1396 44.9503C36.9679 45.0189 36.7696 45.0533 36.5447 45.0533Z" fill="white"/>
</g>
<g filter="url(#filter5_d_7_237)">
<path d="M70.7685 23.2727V23.8409H69.0852V23.2727H70.7685ZM69.4705 26V23.0756C69.4705 22.878 69.509 22.714 69.5859 22.5838C69.6641 22.4536 69.7706 22.3559 69.9055 22.2908C70.0405 22.2257 70.1938 22.1932 70.3654 22.1932C70.4814 22.1932 70.5874 22.2021 70.6832 22.2198C70.7803 22.2376 70.8525 22.2536 70.8999 22.2678L70.7649 22.8359C70.7353 22.8265 70.6986 22.8176 70.6548 22.8093C70.6122 22.801 70.5684 22.7969 70.5234 22.7969C70.4122 22.7969 70.3346 22.8229 70.2908 22.875C70.247 22.9259 70.2251 22.9975 70.2251 23.0898V26H69.4705Z" fill="white"/>
</g>
<g filter="url(#filter6_d_7_237)">
<path d="M25.8398 15L25.0977 12.2727H25.8629L26.2855 14.1051H26.3104L26.7507 12.2727H27.5018L27.9492 14.0945H27.9723L28.3878 12.2727H29.1513L28.4109 15H27.6101L27.1413 13.2848H27.1076L26.6388 15H25.8398ZM29.9969 15.6605C29.8892 15.6605 29.7909 15.6398 29.7021 15.5984C29.6134 15.5581 29.5429 15.4978 29.4909 15.4173C29.4388 15.3379 29.4127 15.2397 29.4127 15.1225C29.4127 15.0361 29.4281 14.9615 29.4589 14.8988C29.4897 14.8361 29.5347 14.7834 29.5938 14.7408C29.6542 14.6982 29.7264 14.6638 29.8105 14.6378C29.8957 14.6106 29.9904 14.5916 30.0945 14.581C30.2046 14.5691 30.2934 14.5585 30.3609 14.549C30.4284 14.5395 30.4775 14.5247 30.5083 14.5046C30.539 14.4833 30.5544 14.4508 30.5544 14.407V14.3679C30.5544 14.2661 30.5219 14.1862 30.4568 14.1282C30.3917 14.0702 30.3029 14.0412 30.1904 14.0412C30.0863 14.0412 29.9981 14.0649 29.9259 14.1122C29.8548 14.1584 29.8075 14.2187 29.7838 14.2933L29.4678 14.2525C29.508 14.1093 29.5915 13.9956 29.7181 13.9116C29.846 13.8263 30.0046 13.7837 30.194 13.7837C30.3183 13.7837 30.4337 13.805 30.5402 13.8477C30.6468 13.8903 30.7326 13.9554 30.7977 14.043C30.8628 14.1306 30.8953 14.2412 30.8953 14.375V15.625H30.5722V15.3374H30.5597C30.5148 15.4261 30.4449 15.5019 30.3502 15.5646C30.2567 15.6286 30.1389 15.6605 29.9969 15.6605ZM30.0821 15.4173C30.1744 15.4173 30.2567 15.396 30.3289 15.3533C30.4011 15.3119 30.4574 15.2545 30.4976 15.1811C30.539 15.1077 30.5597 15.0249 30.5597 14.9325V14.7035C30.5384 14.7189 30.5041 14.7337 30.4568 14.7479C30.4106 14.7621 30.3597 14.7739 30.3041 14.7834C30.2484 14.7929 30.1981 14.8005 30.1531 14.8065C30.0028 14.8254 29.8951 14.8603 29.83 14.9112C29.7661 14.9609 29.7341 15.0296 29.7341 15.1172C29.7341 15.2095 29.7673 15.2823 29.8335 15.3356C29.901 15.39 29.9839 15.4173 30.0821 15.4173ZM32.1356 15.6605C31.9663 15.6605 31.8183 15.6203 31.6917 15.5398C31.5662 15.4593 31.4685 15.348 31.3987 15.206C31.33 15.0651 31.2957 14.9041 31.2957 14.723C31.2957 14.5419 31.33 14.3809 31.3987 14.2401C31.4685 14.098 31.5662 13.9867 31.6917 13.9062C31.8183 13.8246 31.9663 13.7837 32.1356 13.7837C32.3415 13.7837 32.5132 13.8417 32.6505 13.9577C32.7878 14.0737 32.8659 14.227 32.8849 14.4176H32.5617C32.5463 14.3194 32.5013 14.2341 32.4268 14.1619C32.3534 14.0885 32.2581 14.0518 32.1409 14.0518C32.0438 14.0518 31.9568 14.0797 31.8799 14.1353C31.8041 14.1909 31.7443 14.2685 31.7006 14.3679C31.6579 14.4673 31.6366 14.5839 31.6366 14.7177C31.6366 14.8514 31.6573 14.9686 31.6988 15.0692C31.7414 15.1699 31.8006 15.248 31.8763 15.3036C31.9521 15.3593 32.0403 15.3871 32.1409 15.3871C32.2403 15.3871 32.3309 15.3563 32.4126 15.2947C32.4942 15.2332 32.5445 15.142 32.5635 15.0213H32.8866C32.8677 15.2119 32.7907 15.3658 32.6558 15.483C32.5209 15.6013 32.3474 15.6605 32.1356 15.6605Z" fill="white"/>
</g>
<g filter="url(#filter7_d_7_237)">
<path d="M79.3161 26V22.3636H80.0724V23.7308H80.0955C80.1287 23.6574 80.1766 23.5829 80.2393 23.5071C80.3033 23.4302 80.3861 23.3662 80.4879 23.3153C80.5909 23.2633 80.7188 23.2372 80.8714 23.2372C81.0703 23.2372 81.2538 23.2893 81.4219 23.3935C81.59 23.4964 81.7243 23.6521 81.8249 23.8604C81.9255 24.0676 81.9759 24.3274 81.9759 24.6399C81.9759 24.9441 81.9267 25.201 81.8285 25.4105C81.7314 25.6188 81.5988 25.7769 81.4308 25.8846C81.2638 25.9911 81.0768 26.0444 80.8697 26.0444C80.7229 26.0444 80.598 26.0201 80.495 25.9716C80.3932 25.9231 80.3098 25.8621 80.2447 25.7887C80.1796 25.7141 80.1299 25.639 80.0955 25.5632H80.0618V26H79.3161ZM80.0565 24.6364C80.0565 24.7985 80.079 24.94 80.1239 25.0607C80.1689 25.1815 80.234 25.2756 80.3192 25.343C80.4045 25.4093 80.508 25.4425 80.63 25.4425C80.7531 25.4425 80.8572 25.4087 80.9425 25.3413C81.0277 25.2726 81.0922 25.1779 81.136 25.0572C81.181 24.9353 81.2035 24.795 81.2035 24.6364C81.2035 24.4789 81.1816 24.3404 81.1378 24.2209C81.094 24.1013 81.0295 24.0078 80.9442 23.9403C80.859 23.8729 80.7543 23.8391 80.63 23.8391C80.5069 23.8391 80.4027 23.8717 80.3175 23.9368C80.2334 24.0019 80.1689 24.0942 80.1239 24.2138C80.079 24.3333 80.0565 24.4742 80.0565 24.6364ZM83.276 24.8068V25.0696H82.3066V24.8068H83.276ZM82.5622 26.625V24.6222C82.5622 24.4517 82.6137 24.3221 82.7167 24.2333C82.8197 24.1445 82.9446 24.1001 83.0914 24.1001C83.1505 24.1001 83.2044 24.1055 83.2529 24.1161C83.3026 24.1256 83.3417 24.1339 83.3701 24.141L83.2991 24.402C83.2837 24.3984 83.263 24.3943 83.2369 24.3896C83.2121 24.3836 83.1837 24.3807 83.1517 24.3807C83.0724 24.3807 83.0109 24.4026 82.9671 24.4464C82.9244 24.4902 82.9031 24.5511 82.9031 24.6293V26.625H82.5622Z" fill="white"/>
</g>
<g filter="url(#filter8_d_7_237)">
<path d="M25.8398 21L25.0977 18.2727H25.8629L26.2855 20.1051H26.3104L26.7507 18.2727H27.5018L27.9492 20.0945H27.9723L28.3878 18.2727H29.1513L28.4109 21H27.6101L27.1413 19.2848H27.1076L26.6388 21H25.8398ZM29.5317 21.625V19.2031H29.8655V20.169H29.8797C29.9069 20.1027 29.9442 20.0406 29.9916 19.9826C30.0389 19.9234 30.0987 19.8755 30.1709 19.8388C30.2443 19.8021 30.3325 19.7837 30.4355 19.7837C30.5716 19.7837 30.6941 19.8216 30.803 19.8974C30.9119 19.9719 30.9983 20.0797 31.0622 20.2205C31.1262 20.3602 31.1581 20.5277 31.1581 20.723C31.1581 20.9148 31.1267 21.0805 31.064 21.2202C31.0025 21.361 30.9172 21.4693 30.8083 21.5451C30.7006 21.622 30.5763 21.6605 30.4355 21.6605C30.336 21.6605 30.2496 21.6422 30.1762 21.6055C30.1028 21.5688 30.0419 21.5214 29.9933 21.4634C29.9448 21.4054 29.9069 21.3433 29.8797 21.277H29.8655V21.625H29.5317ZM29.8602 20.7177C29.8602 20.913 29.9022 21.0722 29.9862 21.1953C30.0715 21.3196 30.1887 21.3817 30.3378 21.3817C30.4396 21.3817 30.526 21.3527 30.597 21.2947C30.6681 21.2367 30.7225 21.1574 30.7604 21.0568C30.7983 20.9562 30.8172 20.8432 30.8172 20.7177C30.8172 20.5271 30.7752 20.3697 30.6911 20.2454C30.6083 20.1211 30.4905 20.0589 30.3378 20.0589C30.2384 20.0589 30.1526 20.0868 30.0803 20.1424C30.0093 20.198 29.9549 20.2756 29.917 20.375C29.8791 20.4744 29.8602 20.5887 29.8602 20.7177ZM32.3211 21.6605C32.1518 21.6605 32.0039 21.6203 31.8772 21.5398C31.7517 21.4593 31.6541 21.348 31.5843 21.206C31.5156 21.0651 31.4813 20.9041 31.4813 20.723C31.4813 20.5419 31.5156 20.3809 31.5843 20.2401C31.6541 20.098 31.7517 19.9867 31.8772 19.9062C32.0039 19.8246 32.1518 19.7837 32.3211 19.7837C32.5271 19.7837 32.6987 19.8417 32.836 19.9577C32.9733 20.0737 33.0515 20.227 33.0704 20.4176H32.7472C32.7319 20.3194 32.6869 20.2341 32.6123 20.1619C32.5389 20.0885 32.4436 20.0518 32.3264 20.0518C32.2294 20.0518 32.1424 20.0797 32.0654 20.1353C31.9897 20.1909 31.9299 20.2685 31.8861 20.3679C31.8435 20.4673 31.8222 20.5839 31.8222 20.7177C31.8222 20.8514 31.8429 20.9686 31.8843 21.0692C31.9269 21.1699 31.9861 21.248 32.0619 21.3036C32.1376 21.3593 32.2258 21.3871 32.3264 21.3871C32.4259 21.3871 32.5164 21.3563 32.5981 21.2947C32.6798 21.2332 32.7301 21.142 32.749 21.0213H33.0722C33.0532 21.2119 32.9763 21.3658 32.8414 21.483C32.7064 21.6013 32.533 21.6605 32.3211 21.6605Z" fill="white"/>
</g>
<g filter="url(#filter9_d_7_237)">
<path d="M45.3161 5V1.36364H46.0724V2.73082H46.0955C46.1287 2.65743 46.1766 2.58286 46.2393 2.5071C46.3033 2.43016 46.3861 2.36624 46.4879 2.31534C46.5909 2.26326 46.7188 2.23722 46.8714 2.23722C47.0703 2.23722 47.2538 2.2893 47.4219 2.39347C47.59 2.49645 47.7243 2.65211 47.8249 2.86044C47.9255 3.06759 47.9759 3.32741 47.9759 3.63991C47.9759 3.94413 47.9267 4.20099 47.8285 4.41051C47.7314 4.61884 47.5988 4.77687 47.4308 4.88459C47.2638 4.99112 47.0768 5.04439 46.8697 5.04439C46.7229 5.04439 46.598 5.02012 46.495 4.97159C46.3932 4.92306 46.3098 4.8621 46.2447 4.78871C46.1796 4.71413 46.1299 4.63897 46.0955 4.56321H46.0618V5H45.3161ZM46.0565 3.63636C46.0565 3.79853 46.079 3.93999 46.1239 4.06072C46.1689 4.18146 46.234 4.27557 46.3192 4.34304C46.4045 4.40933 46.508 4.44247 46.63 4.44247C46.7531 4.44247 46.8572 4.40874 46.9425 4.34126C47.0277 4.27261 47.0922 4.17791 47.136 4.05717C47.181 3.93525 47.2035 3.79498 47.2035 3.63636C47.2035 3.47893 47.1816 3.34044 47.1378 3.22088C47.094 3.10133 47.0295 3.00781 46.9442 2.94034C46.859 2.87287 46.7543 2.83913 46.63 2.83913C46.5069 2.83913 46.4027 2.87169 46.3175 2.93679C46.2334 3.00189 46.1689 3.09422 46.1239 3.21378C46.079 3.33333 46.0565 3.4742 46.0565 3.63636ZM49.1766 5.66051C49.0073 5.66051 48.8593 5.62027 48.7327 5.53977C48.6072 5.45928 48.5096 5.34801 48.4397 5.20597C48.3711 5.0651 48.3367 4.90412 48.3367 4.72301C48.3367 4.5419 48.3711 4.38092 48.4397 4.24006C48.5096 4.09801 48.6072 3.98674 48.7327 3.90625C48.8593 3.82457 49.0073 3.78374 49.1766 3.78374C49.3825 3.78374 49.5542 3.84174 49.6915 3.95774C49.8288 4.07375 49.9069 4.22704 49.9259 4.41761H49.6027C49.5873 4.31937 49.5423 4.23414 49.4678 4.16193C49.3944 4.08854 49.2991 4.05185 49.1819 4.05185C49.0848 4.05185 48.9978 4.07966 48.9209 4.1353C48.8451 4.19093 48.7854 4.26847 48.7416 4.3679C48.699 4.46733 48.6776 4.58393 48.6776 4.71768C48.6776 4.85144 48.6984 4.96863 48.7398 5.06925C48.7824 5.16986 48.8416 5.24799 48.9173 5.30362C48.9931 5.35926 49.0813 5.38707 49.1819 5.38707C49.2813 5.38707 49.3719 5.3563 49.4536 5.29474C49.5352 5.23319 49.5856 5.14205 49.6045 5.02131H49.9276C49.9087 5.21188 49.8318 5.36577 49.6968 5.48295C49.5619 5.60133 49.3885 5.66051 49.1766 5.66051Z" fill="white"/>
</g>
<g filter="url(#filter10_d_7_237)">
<path d="M45.3161 46V42.3636H46.0724V43.7308H46.0955C46.1287 43.6574 46.1766 43.5829 46.2393 43.5071C46.3033 43.4302 46.3861 43.3662 46.4879 43.3153C46.5909 43.2633 46.7188 43.2372 46.8714 43.2372C47.0703 43.2372 47.2538 43.2893 47.4219 43.3935C47.59 43.4964 47.7243 43.6521 47.8249 43.8604C47.9255 44.0676 47.9759 44.3274 47.9759 44.6399C47.9759 44.9441 47.9267 45.201 47.8285 45.4105C47.7314 45.6188 47.5988 45.7769 47.4308 45.8846C47.2638 45.9911 47.0768 46.0444 46.8697 46.0444C46.7229 46.0444 46.598 46.0201 46.495 45.9716C46.3932 45.9231 46.3098 45.8621 46.2447 45.7887C46.1796 45.7141 46.1299 45.639 46.0955 45.5632H46.0618V46H45.3161ZM46.0565 44.6364C46.0565 44.7985 46.079 44.94 46.1239 45.0607C46.1689 45.1815 46.234 45.2756 46.3192 45.343C46.4045 45.4093 46.508 45.4425 46.63 45.4425C46.7531 45.4425 46.8572 45.4087 46.9425 45.3413C47.0277 45.2726 47.0922 45.1779 47.136 45.0572C47.181 44.9353 47.2035 44.795 47.2035 44.6364C47.2035 44.4789 47.1816 44.3404 47.1378 44.2209C47.094 44.1013 47.0295 44.0078 46.9442 43.9403C46.859 43.8729 46.7543 43.8391 46.63 43.8391C46.5069 43.8391 46.4027 43.8717 46.3175 43.9368C46.2334 44.0019 46.1689 44.0942 46.1239 44.2138C46.079 44.3333 46.0565 44.4742 46.0565 44.6364ZM49.1926 46.6605C49.0186 46.6605 48.867 46.6209 48.738 46.5415C48.6102 46.4634 48.5113 46.3539 48.4415 46.2131C48.3717 46.0722 48.3367 45.9089 48.3367 45.723C48.3367 45.5395 48.3717 45.3774 48.4415 45.2365C48.5125 45.0945 48.6102 44.9838 48.7345 44.9045C48.8599 44.824 49.0044 44.7837 49.1677 44.7837C49.318 44.7837 49.4542 44.8192 49.5761 44.8903C49.698 44.9601 49.7951 45.0619 49.8673 45.1957C49.9395 45.3294 49.9756 45.4916 49.9756 45.6822V45.7958H48.4841V45.5774H49.6578C49.6578 45.4756 49.637 45.3851 49.5956 45.3058C49.5542 45.2253 49.4968 45.1619 49.4234 45.1158C49.35 45.0696 49.2671 45.0465 49.1748 45.0465C49.0777 45.0465 48.9913 45.072 48.9156 45.1229C48.8398 45.1738 48.78 45.2418 48.7362 45.3271C48.6936 45.4123 48.6723 45.5064 48.6723 45.6094V45.794C48.6711 45.9728 48.7179 46.1184 48.8126 46.2308C48.9085 46.3433 49.0375 46.3995 49.1997 46.3995C49.2754 46.3995 49.3423 46.3871 49.4003 46.3622C49.4595 46.3374 49.5086 46.3054 49.5477 46.2663C49.5867 46.2285 49.6151 46.1882 49.6329 46.1456L49.9401 46.1829C49.901 46.3178 49.817 46.4309 49.6879 46.522C49.5589 46.6143 49.3938 46.6605 49.1926 46.6605Z" fill="white"/>
</g>
<g filter="url(#filter11_d_7_237)">
<path d="M45.3161 26V22.3636H46.0724V23.7308H46.0955C46.1287 23.6574 46.1766 23.5829 46.2393 23.5071C46.3033 23.4302 46.3861 23.3662 46.4879 23.3153C46.5909 23.2633 46.7188 23.2372 46.8714 23.2372C47.0703 23.2372 47.2538 23.2893 47.4219 23.3935C47.59 23.4964 47.7243 23.6521 47.8249 23.8604C47.9255 24.0676 47.9759 24.3274 47.9759 24.6399C47.9759 24.9441 47.9267 25.201 47.8285 25.4105C47.7314 25.6188 47.5988 25.7769 47.4308 25.8846C47.2638 25.9911 47.0768 26.0444 46.8697 26.0444C46.7229 26.0444 46.598 26.0201 46.495 25.9716C46.3932 25.9231 46.3098 25.8621 46.2447 25.7887C46.1796 25.7141 46.1299 25.639 46.0955 25.5632H46.0618V26H45.3161ZM46.0565 24.6364C46.0565 24.7985 46.079 24.94 46.1239 25.0607C46.1689 25.1815 46.234 25.2756 46.3192 25.343C46.4045 25.4093 46.508 25.4425 46.63 25.4425C46.7531 25.4425 46.8572 25.4087 46.9425 25.3413C47.0277 25.2726 47.0922 25.1779 47.136 25.0572C47.181 24.9353 47.2035 24.795 47.2035 24.6364C47.2035 24.4789 47.1816 24.3404 47.1378 24.2209C47.094 24.1013 47.0295 24.0078 46.9442 23.9403C46.859 23.8729 46.7543 23.8391 46.63 23.8391C46.5069 23.8391 46.4027 23.8717 46.3175 23.9368C46.2334 24.0019 46.1689 24.0942 46.1239 24.2138C46.079 24.3333 46.0565 24.4742 46.0565 24.6364ZM49.9685 26.625H49.6418V26.277H49.6205C49.5956 26.3385 49.5601 26.3989 49.5139 26.4581C49.4678 26.5173 49.408 26.5658 49.3346 26.6037C49.2624 26.6416 49.1748 26.6605 49.0718 26.6605C48.931 26.6605 48.8055 26.622 48.6954 26.5451C48.5865 26.4693 48.5001 26.361 48.4362 26.2202C48.3734 26.0805 48.3421 25.9148 48.3421 25.723C48.3421 25.5277 48.374 25.3602 48.4379 25.2205C48.5019 25.0797 48.5889 24.9719 48.699 24.8974C48.809 24.8216 48.9333 24.7837 49.0718 24.7837C49.1713 24.7837 49.2571 24.8021 49.3293 24.8388C49.4027 24.8755 49.463 24.9234 49.5104 24.9826C49.5589 25.0406 49.5956 25.1027 49.6205 25.169H49.6347V24.2031H49.9685V26.625ZM49.6418 25.7177C49.6418 25.5271 49.5998 25.3697 49.5157 25.2454C49.4317 25.1211 49.3139 25.0589 49.1624 25.0589C49.0097 25.0589 48.8913 25.1223 48.8073 25.2489C48.7244 25.3744 48.683 25.5307 48.683 25.7177C48.683 25.8455 48.7019 25.9592 48.7398 26.0586C48.7777 26.1592 48.8321 26.2379 48.9031 26.2947C48.9753 26.3527 49.0618 26.3817 49.1624 26.3817C49.2618 26.3817 49.347 26.3533 49.4181 26.2965C49.4903 26.2397 49.5453 26.1616 49.5832 26.0621C49.6222 25.9627 49.6418 25.8479 49.6418 25.7177Z" fill="white"/>
</g>
<g filter="url(#filter12_d_7_237)">
<path d="M25.8398 29L25.0977 26.2727H25.8629L26.2855 28.1051H26.3104L26.7507 26.2727H27.5018L27.9492 28.0945H27.9723L28.3878 26.2727H29.1513L28.4109 29H27.6101L27.1413 27.2848H27.1076L26.6388 29H25.8398ZM29.9969 29.6605C29.8892 29.6605 29.7909 29.6398 29.7021 29.5984C29.6134 29.5581 29.5429 29.4978 29.4909 29.4173C29.4388 29.3379 29.4127 29.2397 29.4127 29.1225C29.4127 29.0361 29.4281 28.9615 29.4589 28.8988C29.4897 28.8361 29.5347 28.7834 29.5938 28.7408C29.6542 28.6982 29.7264 28.6638 29.8105 28.6378C29.8957 28.6106 29.9904 28.5916 30.0945 28.581C30.2046 28.5691 30.2934 28.5585 30.3609 28.549C30.4284 28.5395 30.4775 28.5247 30.5083 28.5046C30.539 28.4833 30.5544 28.4508 30.5544 28.407V28.3679C30.5544 28.2661 30.5219 28.1862 30.4568 28.1282C30.3917 28.0702 30.3029 28.0412 30.1904 28.0412C30.0863 28.0412 29.9981 28.0649 29.9259 28.1122C29.8548 28.1584 29.8075 28.2187 29.7838 28.2933L29.4678 28.2525C29.508 28.1093 29.5915 27.9956 29.7181 27.9116C29.846 27.8263 30.0046 27.7837 30.194 27.7837C30.3183 27.7837 30.4337 27.805 30.5402 27.8477C30.6468 27.8903 30.7326 27.9554 30.7977 28.043C30.8628 28.1306 30.8953 28.2412 30.8953 28.375V29.625H30.5722V29.3374H30.5597C30.5148 29.4261 30.4449 29.5019 30.3502 29.5646C30.2567 29.6286 30.1389 29.6605 29.9969 29.6605ZM30.0821 29.4173C30.1744 29.4173 30.2567 29.396 30.3289 29.3533C30.4011 29.3119 30.4574 29.2545 30.4976 29.1811C30.539 29.1077 30.5597 29.0249 30.5597 28.9325V28.7035C30.5384 28.7189 30.5041 28.7337 30.4568 28.7479C30.4106 28.7621 30.3597 28.7739 30.3041 28.7834C30.2484 28.7929 30.1981 28.8005 30.1531 28.8065C30.0028 28.8254 29.8951 28.8603 29.83 28.9112C29.7661 28.9609 29.7341 29.0296 29.7341 29.1172C29.7341 29.2095 29.7673 29.2823 29.8335 29.3356C29.901 29.39 29.9839 29.4173 30.0821 29.4173ZM32.9275 29.625H32.6008V29.277H32.5795C32.5546 29.3385 32.5191 29.3989 32.4729 29.4581C32.4268 29.5173 32.367 29.5658 32.2936 29.6037C32.2214 29.6416 32.1338 29.6605 32.0308 29.6605C31.8899 29.6605 31.7645 29.622 31.6544 29.5451C31.5455 29.4693 31.4591 29.361 31.3952 29.2202C31.3324 29.0805 31.301 28.9148 31.301 28.723C31.301 28.5277 31.333 28.3602 31.3969 28.2205C31.4608 28.0797 31.5479 27.9719 31.6579 27.8974C31.768 27.8216 31.8923 27.7837 32.0308 27.7837C32.1302 27.7837 32.2161 27.8021 32.2883 27.8388C32.3617 27.8755 32.422 27.9234 32.4694 27.9826C32.5179 28.0406 32.5546 28.1027 32.5795 28.169H32.5937V27.2031H32.9275V29.625ZM32.6008 28.7177C32.6008 28.5271 32.5587 28.3697 32.4747 28.2454C32.3907 28.1211 32.2729 28.0589 32.1214 28.0589C31.9687 28.0589 31.8503 28.1223 31.7662 28.2489C31.6834 28.3744 31.642 28.5307 31.642 28.7177C31.642 28.8455 31.6609 28.9592 31.6988 29.0586C31.7367 29.1592 31.7911 29.2379 31.8621 29.2947C31.9343 29.3527 32.0207 29.3817 32.1214 29.3817C32.2208 29.3817 32.306 29.3533 32.377 29.2965C32.4492 29.2397 32.5043 29.1616 32.5422 29.0621C32.5812 28.9627 32.6008 28.8479 32.6008 28.7177Z" fill="white"/>
</g>
<g filter="url(#filter13_d_7_237)">
<path d="M58.8398 23L58.0977 20.2727H58.8629L59.2855 22.1051H59.3104L59.7507 20.2727H60.5018L60.9492 22.0945H60.9723L61.3878 20.2727H62.1513L61.4109 23H60.6101L60.1413 21.2848H60.1076L59.6388 23H58.8398ZM63.2508 23.6605C63.0815 23.6605 62.9336 23.6203 62.8069 23.5398C62.6814 23.4593 62.5838 23.348 62.5139 23.206C62.4453 23.0651 62.411 22.9041 62.411 22.723C62.411 22.5419 62.4453 22.3809 62.5139 22.2401C62.5838 22.098 62.6814 21.9867 62.8069 21.9062C62.9336 21.8246 63.0815 21.7837 63.2508 21.7837C63.4568 21.7837 63.6284 21.8417 63.7657 21.9577C63.903 22.0737 63.9811 22.227 64.0001 22.4176H63.6769C63.6615 22.3194 63.6166 22.2341 63.542 22.1619C63.4686 22.0885 63.3733 22.0518 63.2561 22.0518C63.1591 22.0518 63.0721 22.0797 62.9951 22.1353C62.9194 22.1909 62.8596 22.2685 62.8158 22.3679C62.7732 22.4673 62.7519 22.5839 62.7519 22.7177C62.7519 22.8514 62.7726 22.9686 62.814 23.0692C62.8566 23.1699 62.9158 23.248 62.9916 23.3036C63.0673 23.3593 63.1555 23.3871 63.2561 23.3871C63.3556 23.3871 63.4461 23.3563 63.5278 23.2947C63.6095 23.2332 63.6598 23.142 63.6787 23.0213H64.0019C63.9829 23.2119 63.906 23.3658 63.771 23.483C63.6361 23.6013 63.4627 23.6605 63.2508 23.6605ZM65.2594 21.8068V22.0696H64.29V21.8068H65.2594ZM64.5456 23.625V21.6222C64.5456 21.4517 64.5971 21.3221 64.7001 21.2333C64.8031 21.1445 64.928 21.1001 65.0748 21.1001C65.1339 21.1001 65.1878 21.1055 65.2363 21.1161C65.286 21.1256 65.3251 21.1339 65.3535 21.141L65.2825 21.402C65.2671 21.3984 65.2464 21.3943 65.2203 21.3896C65.1955 21.3836 65.1671 21.3807 65.1351 21.3807C65.0558 21.3807 64.9943 21.4026 64.9505 21.4464C64.9078 21.4902 64.8865 21.5511 64.8865 21.6293V23.625H64.5456Z" fill="white"/>
</g>
<g filter="url(#filter14_d_7_237)">
<path d="M58.8398 31L58.0977 28.2727H58.8629L59.2855 30.1051H59.3104L59.7507 28.2727H60.5018L60.9492 30.0945H60.9723L61.3878 28.2727H62.1513L61.4109 31H60.6101L60.1413 29.2848H60.1076L59.6388 31H58.8398ZM64.0427 31.625H63.716V31.277H63.6947C63.6698 31.3385 63.6343 31.3989 63.5882 31.4581C63.542 31.5173 63.4822 31.5658 63.4088 31.6037C63.3366 31.6416 63.249 31.6605 63.146 31.6605C63.0052 31.6605 62.8797 31.622 62.7696 31.5451C62.6607 31.4693 62.5743 31.361 62.5104 31.2202C62.4477 31.0805 62.4163 30.9148 62.4163 30.723C62.4163 30.5277 62.4482 30.3602 62.5122 30.2205C62.5761 30.0797 62.6631 29.9719 62.7732 29.8974C62.8833 29.8216 63.0075 29.7837 63.146 29.7837C63.2455 29.7837 63.3313 29.8021 63.4035 29.8388C63.4769 29.8755 63.5373 29.9234 63.5846 29.9826C63.6331 30.0406 63.6698 30.1027 63.6947 30.169H63.7089V29.2031H64.0427V31.625ZM63.716 30.7177C63.716 30.5271 63.674 30.3697 63.5899 30.2454C63.5059 30.1211 63.3881 30.0589 63.2366 30.0589C63.0839 30.0589 62.9655 30.1223 62.8815 30.2489C62.7986 30.3744 62.7572 30.5307 62.7572 30.7177C62.7572 30.8455 62.7761 30.9592 62.814 31.0586C62.8519 31.1592 62.9063 31.2379 62.9774 31.2947C63.0496 31.3527 63.136 31.3817 63.2366 31.3817C63.336 31.3817 63.4213 31.3533 63.4923 31.2965C63.5645 31.2397 63.6195 31.1616 63.6574 31.0621C63.6965 30.9627 63.716 30.8479 63.716 30.7177ZM65.4205 29.8068V30.0696H64.4511V29.8068H65.4205ZM64.7068 31.625V29.6222C64.7068 29.4517 64.7583 29.3221 64.8612 29.2333C64.9642 29.1445 65.0891 29.1001 65.2359 29.1001C65.2951 29.1001 65.3489 29.1055 65.3975 29.1161C65.4472 29.1256 65.4862 29.1339 65.5146 29.141L65.4436 29.402C65.4282 29.3984 65.4075 29.3943 65.3815 29.3896C65.3566 29.3836 65.3282 29.3807 65.2963 29.3807C65.2169 29.3807 65.1554 29.4026 65.1116 29.4464C65.069 29.4902 65.0477 29.5511 65.0477 29.6293V31.625H64.7068Z" fill="white"/>
</g>
<g filter="url(#filter15_d_7_237)">
<path d="M58.8398 40L58.0977 37.2727H58.8629L59.2855 39.1051H59.3104L59.7507 37.2727H60.5018L60.9492 39.0945H60.9723L61.3878 37.2727H62.1513L61.4109 40H60.6101L60.1413 38.2848H60.1076L59.6388 40H58.8398ZM63.2668 40.6605C63.0928 40.6605 62.9413 40.6209 62.8122 40.5415C62.6844 40.4634 62.5856 40.3539 62.5157 40.2131C62.4459 40.0722 62.411 39.9089 62.411 39.723C62.411 39.5395 62.4459 39.3774 62.5157 39.2365C62.5867 39.0945 62.6844 38.9838 62.8087 38.9045C62.9342 38.824 63.0786 38.7837 63.2419 38.7837C63.3923 38.7837 63.5284 38.8192 63.6503 38.8903C63.7722 38.9601 63.8693 39.0619 63.9415 39.1957C64.0137 39.3294 64.0498 39.4916 64.0498 39.6822V39.7958H62.5583V39.5774H63.732C63.732 39.4756 63.7113 39.3851 63.6698 39.3058C63.6284 39.2253 63.571 39.1619 63.4976 39.1158C63.4242 39.0696 63.3414 39.0465 63.249 39.0465C63.152 39.0465 63.0655 39.072 62.9898 39.1229C62.914 39.1738 62.8543 39.2418 62.8105 39.3271C62.7678 39.4123 62.7465 39.5064 62.7465 39.6094V39.794C62.7454 39.9728 62.7921 40.1184 62.8868 40.2308C62.9827 40.3433 63.1117 40.3995 63.2739 40.3995C63.3496 40.3995 63.4165 40.3871 63.4745 40.3622C63.5337 40.3374 63.5828 40.3054 63.6219 40.2663C63.661 40.2285 63.6894 40.1882 63.7071 40.1456L64.0143 40.1829C63.9752 40.3178 63.8912 40.4309 63.7622 40.522C63.6331 40.6143 63.468 40.6605 63.2668 40.6605ZM65.3034 38.8068V39.0696H64.3339V38.8068H65.3034ZM64.5896 40.625V38.6222C64.5896 38.4517 64.6411 38.3221 64.7441 38.2333C64.847 38.1445 64.9719 38.1001 65.1187 38.1001C65.1779 38.1001 65.2317 38.1055 65.2803 38.1161C65.33 38.1256 65.3691 38.1339 65.3975 38.141L65.3264 38.402C65.311 38.3984 65.2903 38.3943 65.2643 38.3896C65.2394 38.3836 65.211 38.3807 65.1791 38.3807C65.0998 38.3807 65.0382 38.4026 64.9944 38.4464C64.9518 38.4902 64.9305 38.5511 64.9305 38.6293V40.625H64.5896Z" fill="white"/>
</g>
<g filter="url(#filter16_d_7_237)">
<path d="M25.8398 35L25.0977 32.2727H25.8629L26.2855 34.1051H26.3104L26.7507 32.2727H27.5018L27.9492 34.0945H27.9723L28.3878 32.2727H29.1513L28.4109 35H27.6101L27.1413 33.2848H27.1076L26.6388 35H25.8398ZM29.5317 35.625V33.2031H29.8655V34.169H29.8797C29.9069 34.1027 29.9442 34.0406 29.9916 33.9826C30.0389 33.9234 30.0987 33.8755 30.1709 33.8388C30.2443 33.8021 30.3325 33.7837 30.4355 33.7837C30.5716 33.7837 30.6941 33.8216 30.803 33.8974C30.9119 33.9719 30.9983 34.0797 31.0622 34.2205C31.1262 34.3602 31.1581 34.5277 31.1581 34.723C31.1581 34.9148 31.1267 35.0805 31.064 35.2202C31.0025 35.361 30.9172 35.4693 30.8083 35.5451C30.7006 35.622 30.5763 35.6605 30.4355 35.6605C30.336 35.6605 30.2496 35.6422 30.1762 35.6055C30.1028 35.5688 30.0419 35.5214 29.9933 35.4634C29.9448 35.4054 29.9069 35.3433 29.8797 35.277H29.8655V35.625H29.5317ZM29.8602 34.7177C29.8602 34.913 29.9022 35.0722 29.9862 35.1953C30.0715 35.3196 30.1887 35.3817 30.3378 35.3817C30.4396 35.3817 30.526 35.3527 30.597 35.2947C30.6681 35.2367 30.7225 35.1574 30.7604 35.0568C30.7983 34.9562 30.8172 34.8432 30.8172 34.7177C30.8172 34.5271 30.7752 34.3697 30.6911 34.2454C30.6083 34.1211 30.4905 34.0589 30.3378 34.0589C30.2384 34.0589 30.1526 34.0868 30.0803 34.1424C30.0093 34.198 29.9549 34.2756 29.917 34.375C29.8791 34.4744 29.8602 34.5887 29.8602 34.7177ZM33.113 35.625H32.7863V35.277H32.765C32.7401 35.3385 32.7046 35.3989 32.6585 35.4581C32.6123 35.5173 32.5525 35.5658 32.4791 35.6037C32.4069 35.6416 32.3193 35.6605 32.2164 35.6605C32.0755 35.6605 31.95 35.622 31.8399 35.5451C31.731 35.4693 31.6446 35.361 31.5807 35.2202C31.518 35.0805 31.4866 34.9148 31.4866 34.723C31.4866 34.5277 31.5186 34.3602 31.5825 34.2205C31.6464 34.0797 31.7334 33.9719 31.8435 33.8974C31.9536 33.8216 32.0779 33.7837 32.2164 33.7837C32.3158 33.7837 32.4016 33.8021 32.4738 33.8388C32.5472 33.8755 32.6076 33.9234 32.6549 33.9826C32.7035 34.0406 32.7401 34.1027 32.765 34.169H32.7792V33.2031H33.113V35.625ZM32.7863 34.7177C32.7863 34.5271 32.7443 34.3697 32.6602 34.2454C32.5762 34.1211 32.4584 34.0589 32.3069 34.0589C32.1542 34.0589 32.0358 34.1223 31.9518 34.2489C31.8689 34.3744 31.8275 34.5307 31.8275 34.7177C31.8275 34.8455 31.8464 34.9592 31.8843 35.0586C31.9222 35.1592 31.9767 35.2379 32.0477 35.2947C32.1199 35.3527 32.2063 35.3817 32.3069 35.3817C32.4063 35.3817 32.4916 35.3533 32.5626 35.2965C32.6348 35.2397 32.6898 35.1616 32.7277 35.0621C32.7668 34.9627 32.7863 34.8479 32.7863 34.7177Z" fill="white"/>
</g>
<g filter="url(#filter17_d_7_237)">
<path d="M25.8398 48L25.0977 45.2727H25.8629L26.2855 47.1051H26.3104L26.7507 45.2727H27.5018L27.9492 47.0945H27.9723L28.3878 45.2727H29.1513L28.4109 48H27.6101L27.1413 46.2848H27.1076L26.6388 48H25.8398ZM29.5317 48.625V46.2031H29.8655V47.169H29.8797C29.9069 47.1027 29.9442 47.0406 29.9916 46.9826C30.0389 46.9234 30.0987 46.8755 30.1709 46.8388C30.2443 46.8021 30.3325 46.7837 30.4355 46.7837C30.5716 46.7837 30.6941 46.8216 30.803 46.8974C30.9119 46.9719 30.9983 47.0797 31.0622 47.2205C31.1262 47.3602 31.1581 47.5277 31.1581 47.723C31.1581 47.9148 31.1267 48.0805 31.064 48.2202C31.0025 48.361 30.9172 48.4693 30.8083 48.5451C30.7006 48.622 30.5763 48.6605 30.4355 48.6605C30.336 48.6605 30.2496 48.6422 30.1762 48.6055C30.1028 48.5688 30.0419 48.5214 29.9933 48.4634C29.9448 48.4054 29.9069 48.3433 29.8797 48.277H29.8655V48.625H29.5317ZM29.8602 47.7177C29.8602 47.913 29.9022 48.0722 29.9862 48.1953C30.0715 48.3196 30.1887 48.3817 30.3378 48.3817C30.4396 48.3817 30.526 48.3527 30.597 48.2947C30.6681 48.2367 30.7225 48.1574 30.7604 48.0568C30.7983 47.9562 30.8172 47.8432 30.8172 47.7177C30.8172 47.5271 30.7752 47.3697 30.6911 47.2454C30.6083 47.1211 30.4905 47.0589 30.3378 47.0589C30.2384 47.0589 30.1526 47.0868 30.0803 47.1424C30.0093 47.198 29.9549 47.2756 29.917 47.375C29.8791 47.4744 29.8602 47.5887 29.8602 47.7177ZM32.3371 48.6605C32.1631 48.6605 32.0116 48.6209 31.8825 48.5415C31.7547 48.4634 31.6559 48.3539 31.586 48.2131C31.5162 48.0722 31.4813 47.9089 31.4813 47.723C31.4813 47.5395 31.5162 47.3774 31.586 47.2365C31.657 47.0945 31.7547 46.9838 31.879 46.9045C32.0045 46.824 32.1489 46.7837 32.3122 46.7837C32.4626 46.7837 32.5987 46.8192 32.7206 46.8903C32.8425 46.9601 32.9396 47.0619 33.0118 47.1957C33.084 47.3294 33.1201 47.4916 33.1201 47.6822V47.7958H31.6286V47.5774H32.8023C32.8023 47.4756 32.7816 47.3851 32.7401 47.3058C32.6987 47.2253 32.6413 47.1619 32.5679 47.1158C32.4945 47.0696 32.4117 47.0465 32.3193 47.0465C32.2223 47.0465 32.1359 47.072 32.0601 47.1229C31.9843 47.1738 31.9246 47.2418 31.8808 47.3271C31.8382 47.4123 31.8169 47.5064 31.8169 47.6094V47.794C31.8157 47.9728 31.8624 48.1184 31.9571 48.2308C32.053 48.3433 32.182 48.3995 32.3442 48.3995C32.42 48.3995 32.4868 48.3871 32.5448 48.3622C32.604 48.3374 32.6531 48.3054 32.6922 48.2663C32.7313 48.2285 32.7597 48.1882 32.7774 48.1456L33.0846 48.1829C33.0455 48.3178 32.9615 48.4309 32.8325 48.522C32.7035 48.6143 32.5383 48.6605 32.3371 48.6605Z" fill="white"/>
</g>
<g filter="url(#filter18_d_7_237)">
<path d="M25.8398 41L25.0977 38.2727H25.8629L26.2855 40.1051H26.3104L26.7507 38.2727H27.5018L27.9492 40.0945H27.9723L28.3878 38.2727H29.1513L28.4109 41H27.6101L27.1413 39.2848H27.1076L26.6388 41H25.8398ZM29.9969 41.6605C29.8892 41.6605 29.7909 41.6398 29.7021 41.5984C29.6134 41.5581 29.5429 41.4978 29.4909 41.4173C29.4388 41.3379 29.4127 41.2397 29.4127 41.1225C29.4127 41.0361 29.4281 40.9615 29.4589 40.8988C29.4897 40.8361 29.5347 40.7834 29.5938 40.7408C29.6542 40.6982 29.7264 40.6638 29.8105 40.6378C29.8957 40.6106 29.9904 40.5916 30.0945 40.581C30.2046 40.5691 30.2934 40.5585 30.3609 40.549C30.4284 40.5395 30.4775 40.5247 30.5083 40.5046C30.539 40.4833 30.5544 40.4508 30.5544 40.407V40.3679C30.5544 40.2661 30.5219 40.1862 30.4568 40.1282C30.3917 40.0702 30.3029 40.0412 30.1904 40.0412C30.0863 40.0412 29.9981 40.0649 29.9259 40.1122C29.8548 40.1584 29.8075 40.2187 29.7838 40.2933L29.4678 40.2525C29.508 40.1093 29.5915 39.9956 29.7181 39.9116C29.846 39.8263 30.0046 39.7837 30.194 39.7837C30.3183 39.7837 30.4337 39.805 30.5402 39.8477C30.6468 39.8903 30.7326 39.9554 30.7977 40.043C30.8628 40.1306 30.8953 40.2412 30.8953 40.375V41.625H30.5722V41.3374H30.5597C30.5148 41.4261 30.4449 41.5019 30.3502 41.5646C30.2567 41.6286 30.1389 41.6605 29.9969 41.6605ZM30.0821 41.4173C30.1744 41.4173 30.2567 41.396 30.3289 41.3533C30.4011 41.3119 30.4574 41.2545 30.4976 41.1811C30.539 41.1077 30.5597 41.0249 30.5597 40.9325V40.7035C30.5384 40.7189 30.5041 40.7337 30.4568 40.7479C30.4106 40.7621 30.3597 40.7739 30.3041 40.7834C30.2484 40.7929 30.1981 40.8005 30.1531 40.8065C30.0028 40.8254 29.8951 40.8603 29.83 40.9112C29.7661 40.9609 29.7341 41.0296 29.7341 41.1172C29.7341 41.2095 29.7673 41.2823 29.8335 41.3356C29.901 41.39 29.9839 41.4173 30.0821 41.4173ZM32.1515 41.6605C31.9775 41.6605 31.826 41.6209 31.697 41.5415C31.5692 41.4634 31.4703 41.3539 31.4005 41.2131C31.3306 41.0722 31.2957 40.9089 31.2957 40.723C31.2957 40.5395 31.3306 40.3774 31.4005 40.2365C31.4715 40.0945 31.5692 39.9838 31.6934 39.9045C31.8189 39.824 31.9633 39.7837 32.1267 39.7837C32.277 39.7837 32.4131 39.8192 32.5351 39.8903C32.657 39.9601 32.7541 40.0619 32.8263 40.1957C32.8985 40.3294 32.9346 40.4916 32.9346 40.6822V40.7958H31.4431V40.5774H32.6167C32.6167 40.4756 32.596 40.3851 32.5546 40.3058C32.5132 40.2253 32.4558 40.1619 32.3824 40.1158C32.309 40.0696 32.2261 40.0465 32.1338 40.0465C32.0367 40.0465 31.9503 40.072 31.8746 40.1229C31.7988 40.1738 31.739 40.2418 31.6952 40.3271C31.6526 40.4123 31.6313 40.5064 31.6313 40.6094V40.794C31.6301 40.9728 31.6769 41.1184 31.7716 41.2308C31.8675 41.3433 31.9965 41.3995 32.1586 41.3995C32.2344 41.3995 32.3013 41.3871 32.3593 41.3622C32.4185 41.3374 32.4676 41.3054 32.5067 41.2663C32.5457 41.2285 32.5741 41.1882 32.5919 41.1456L32.8991 41.1829C32.86 41.3178 32.776 41.4309 32.6469 41.522C32.5179 41.6143 32.3528 41.6605 32.1515 41.6605Z" fill="white"/>
</g>
<defs>
<filter id="filter0_d_7_237" x="0.0740112" y="14.1372" width="4.64141" height="5.01429" filterUnits="userSpaceOnUse" color-interpolation-filters="sRGB">
<feFlood flood-opacity="0" result="BackgroundImageFix"/>
<feColorMatrix in="SourceAlpha" type="matrix" values="0 0 0 0 0 0 0 0 0 0 0 0 0 0 0 0 0 0 127 0" result="hardAlpha"/>
<feOffset/>
<feGaussianBlur stdDeviation="0.55"/>
<feComposite in2="hardAlpha" operator="out"/>
<feColorMatrix type="matrix" values="0 0 0 0 0 0 0 0 0 0 0 0 0 0 0 0 0 0 1 0"/>
<feBlend mode="normal" in2="BackgroundImageFix" result="effect1_dropShadow_7_237"/>
<feBlend mode="normal" in="SourceGraphic" in2="effect1_dropShadow_7_237" result="shape"/>
</filter>
<filter id="filter1_d_7_237" x="0.21604" y="33.2636" width="4.85982" height="5.88076" filterUnits="userSpaceOnUse" color-interpolation-filters="sRGB">
<feFlood flood-opacity="0" result="BackgroundImageFix"/>
<feColorMatrix in="SourceAlpha" type="matrix" values="0 0 0 0 0 0 0 0 0 0 0 0 0 0 0 0 0 0 127 0" result="hardAlpha"/>
<feOffset/>
<feGaussianBlur stdDeviation="0.55"/>
<feComposite in2="hardAlpha" operator="out"/>
<feColorMatrix type="matrix" values="0 0 0 0 0 0 0 0 0 0 0 0 0 0 0 0 0 0 1 0"/>
<feBlend mode="normal" in2="BackgroundImageFix" result="effect1_dropShadow_7_237"/>
<feBlend mode="normal" in="SourceGraphic" in2="effect1_dropShadow_7_237" result="shape"/>
</filter>
<filter id="filter2_d_7_237" x="34.0918" y="2.13721" width="4.76036" height="5.01606" filterUnits="userSpaceOnUse" color-interpolation-filters="sRGB">
<feFlood flood-opacity="0" result="BackgroundImageFix"/>
<feColorMatrix in="SourceAlpha" type="matrix" values="0 0 0 0 0 0 0 0 0 0 0 0 0 0 0 0 0 0 127 0" result="hardAlpha"/>
<feOffset/>
<feGaussianBlur stdDeviation="0.55"/>
<feComposite in2="hardAlpha" operator="out"/>
<feColorMatrix type="matrix" values="0 0 0 0 0 0 0 0 0 0 0 0 0 0 0 0 0 0 1 0"/>
<feBlend mode="normal" in2="BackgroundImageFix" result="effect1_dropShadow_7_237"/>
<feBlend mode="normal" in="SourceGraphic" in2="effect1_dropShadow_7_237" result="shape"/>
</filter>
<filter id="filter3_d_7_237" x="34.1007" y="21.2636" width="4.85802" height="5.88076" filterUnits="userSpaceOnUse" color-interpolation-filters="sRGB">
<feFlood flood-opacity="0" result="BackgroundImageFix"/>
<feColorMatrix in="SourceAlpha" type="matrix" values="0 0 0 0 0 0 0 0 0 0 0 0 0 0 0 0 0 0 127 0" result="hardAlpha"/>
<feOffset/>
<feGaussianBlur stdDeviation="0.55"/>
<feComposite in2="hardAlpha" operator="out"/>
<feColorMatrix type="matrix" values="0 0 0 0 0 0 0 0 0 0 0 0 0 0 0 0 0 0 1 0"/>
<feBlend mode="normal" in2="BackgroundImageFix" result="effect1_dropShadow_7_237"/>
<feBlend mode="normal" in="SourceGraphic" in2="effect1_dropShadow_7_237" result="shape"/>
</filter>
<filter id="filter4_d_7_237" x="34.0918" y="41.1372" width="4.80474" height="5.01606" filterUnits="userSpaceOnUse" color-interpolation-filters="sRGB">
<feFlood flood-opacity="0" result="BackgroundImageFix"/>
<feColorMatrix in="SourceAlpha" type="matrix" values="0 0 0 0 0 0 0 0 0 0 0 0 0 0 0 0 0 0 127 0" result="hardAlpha"/>
<feOffset/>
<feGaussianBlur stdDeviation="0.55"/>
<feComposite in2="hardAlpha" operator="out"/>
<feColorMatrix type="matrix" values="0 0 0 0 0 0 0 0 0 0 0 0 0 0 0 0 0 0 1 0"/>
<feBlend mode="normal" in2="BackgroundImageFix" result="effect1_dropShadow_7_237"/>
<feBlend mode="normal" in="SourceGraphic" in2="effect1_dropShadow_7_237" result="shape"/>
</filter>
<filter id="filter5_d_7_237" x="67.9852" y="21.0932" width="4.01464" height="6.00682" filterUnits="userSpaceOnUse" color-interpolation-filters="sRGB">
<feFlood flood-opacity="0" result="BackgroundImageFix"/>
<feColorMatrix in="SourceAlpha" type="matrix" values="0 0 0 0 0 0 0 0 0 0 0 0 0 0 0 0 0 0 127 0" result="hardAlpha"/>
<feOffset/>
<feGaussianBlur stdDeviation="0.55"/>
<feComposite in2="hardAlpha" operator="out"/>
<feColorMatrix type="matrix" values="0 0 0 0 0 0 0 0 0 0 0 0 0 0 0 0 0 0 1 0"/>
<feBlend mode="normal" in2="BackgroundImageFix" result="effect1_dropShadow_7_237"/>
<feBlend mode="normal" in="SourceGraphic" in2="effect1_dropShadow_7_237" result="shape"/>
</filter>
<filter id="filter6_d_7_237" x="24.6977" y="11.8727" width="8.58897" height="4.18779" filterUnits="userSpaceOnUse" color-interpolation-filters="sRGB">
<feFlood flood-opacity="0" result="BackgroundImageFix"/>
<feColorMatrix in="SourceAlpha" type="matrix" values="0 0 0 0 0 0 0 0 0 0 0 0 0 0 0 0 0 0 127 0" result="hardAlpha"/>
<feOffset/>
<feGaussianBlur stdDeviation="0.2"/>
<feComposite in2="hardAlpha" operator="out"/>
<feColorMatrix type="matrix" values="0 0 0 0 0 0 0 0 0 0 0 0 0 0 0 0 0 0 0.5 0"/>
<feBlend mode="normal" in2="BackgroundImageFix" result="effect1_dropShadow_7_237"/>
<feBlend mode="normal" in="SourceGraphic" in2="effect1_dropShadow_7_237" result="shape"/>
</filter>
<filter id="filter7_d_7_237" x="78.216" y="21.2636" width="6.25408" height="6.46137" filterUnits="userSpaceOnUse" color-interpolation-filters="sRGB">
<feFlood flood-opacity="0" result="BackgroundImageFix"/>
<feColorMatrix in="SourceAlpha" type="matrix" values="0 0 0 0 0 0 0 0 0 0 0 0 0 0 0 0 0 0 127 0" result="hardAlpha"/>
<feOffset/>
<feGaussianBlur stdDeviation="0.55"/>
<feComposite in2="hardAlpha" operator="out"/>
<feColorMatrix type="matrix" values="0 0 0 0 0 0 0 0 0 0 0 0 0 0 0 0 0 0 1 0"/>
<feBlend mode="normal" in2="BackgroundImageFix" result="effect1_dropShadow_7_237"/>
<feBlend mode="normal" in="SourceGraphic" in2="effect1_dropShadow_7_237" result="shape"/>
</filter>
<filter id="filter8_d_7_237" x="24.6977" y="17.8727" width="8.77452" height="4.18779" filterUnits="userSpaceOnUse" color-interpolation-filters="sRGB">
<feFlood flood-opacity="0" result="BackgroundImageFix"/>
<feColorMatrix in="SourceAlpha" type="matrix" values="0 0 0 0 0 0 0 0 0 0 0 0 0 0 0 0 0 0 127 0" result="hardAlpha"/>
<feOffset/>
<feGaussianBlur stdDeviation="0.2"/>
<feComposite in2="hardAlpha" operator="out"/>
<feColorMatrix type="matrix" values="0 0 0 0 0 0 0 0 0 0 0 0 0 0 0 0 0 0 0.5 0"/>
<feBlend mode="normal" in2="BackgroundImageFix" result="effect1_dropShadow_7_237"/>
<feBlend mode="normal" in="SourceGraphic" in2="effect1_dropShadow_7_237" result="shape"/>
</filter>
<filter id="filter9_d_7_237" x="44.216" y="0.263632" width="6.8116" height="6.49688" filterUnits="userSpaceOnUse" color-interpolation-filters="sRGB">
<feFlood flood-opacity="0" result="BackgroundImageFix"/>
<feColorMatrix in="SourceAlpha" type="matrix" values="0 0 0 0 0 0 0 0 0 0 0 0 0 0 0 0 0 0 127 0" result="hardAlpha"/>
<feOffset/>
<feGaussianBlur stdDeviation="0.55"/>
<feComposite in2="hardAlpha" operator="out"/>
<feColorMatrix type="matrix" values="0 0 0 0 0 0 0 0 0 0 0 0 0 0 0 0 0 0 1 0"/>
<feBlend mode="normal" in2="BackgroundImageFix" result="effect1_dropShadow_7_237"/>
<feBlend mode="normal" in="SourceGraphic" in2="effect1_dropShadow_7_237" result="shape"/>
</filter>
<filter id="filter10_d_7_237" x="44.216" y="41.2636" width="6.85955" height="6.49688" filterUnits="userSpaceOnUse" color-interpolation-filters="sRGB">
<feFlood flood-opacity="0" result="BackgroundImageFix"/>
<feColorMatrix in="SourceAlpha" type="matrix" values="0 0 0 0 0 0 0 0 0 0 0 0 0 0 0 0 0 0 127 0" result="hardAlpha"/>
<feOffset/>
<feGaussianBlur stdDeviation="0.55"/>
<feComposite in2="hardAlpha" operator="out"/>
<feColorMatrix type="matrix" values="0 0 0 0 0 0 0 0 0 0 0 0 0 0 0 0 0 0 1 0"/>
<feBlend mode="normal" in2="BackgroundImageFix" result="effect1_dropShadow_7_237"/>
<feBlend mode="normal" in="SourceGraphic" in2="effect1_dropShadow_7_237" result="shape"/>
</filter>
<filter id="filter11_d_7_237" x="44.216" y="21.2636" width="6.85244" height="6.49688" filterUnits="userSpaceOnUse" color-interpolation-filters="sRGB">
<feFlood flood-opacity="0" result="BackgroundImageFix"/>
<feColorMatrix in="SourceAlpha" type="matrix" values="0 0 0 0 0 0 0 0 0 0 0 0 0 0 0 0 0 0 127 0" result="hardAlpha"/>
<feOffset/>
<feGaussianBlur stdDeviation="0.55"/>
<feComposite in2="hardAlpha" operator="out"/>
<feColorMatrix type="matrix" values="0 0 0 0 0 0 0 0 0 0 0 0 0 0 0 0 0 0 1 0"/>
<feBlend mode="normal" in2="BackgroundImageFix" result="effect1_dropShadow_7_237"/>
<feBlend mode="normal" in="SourceGraphic" in2="effect1_dropShadow_7_237" result="shape"/>
</filter>
<filter id="filter12_d_7_237" x="24.6977" y="25.8727" width="8.6298" height="4.18779" filterUnits="userSpaceOnUse" color-interpolation-filters="sRGB">
<feFlood flood-opacity="0" result="BackgroundImageFix"/>
<feColorMatrix in="SourceAlpha" type="matrix" values="0 0 0 0 0 0 0 0 0 0 0 0 0 0 0 0 0 0 127 0" result="hardAlpha"/>
<feOffset/>
<feGaussianBlur stdDeviation="0.2"/>
<feComposite in2="hardAlpha" operator="out"/>
<feColorMatrix type="matrix" values="0 0 0 0 0 0 0 0 0 0 0 0 0 0 0 0 0 0 0.5 0"/>
<feBlend mode="normal" in2="BackgroundImageFix" result="effect1_dropShadow_7_237"/>
<feBlend mode="normal" in="SourceGraphic" in2="effect1_dropShadow_7_237" result="shape"/>
</filter>
<filter id="filter13_d_7_237" x="57.6977" y="19.8727" width="8.05586" height="4.18779" filterUnits="userSpaceOnUse" color-interpolation-filters="sRGB">
<feFlood flood-opacity="0" result="BackgroundImageFix"/>
<feColorMatrix in="SourceAlpha" type="matrix" values="0 0 0 0 0 0 0 0 0 0 0 0 0 0 0 0 0 0 127 0" result="hardAlpha"/>
<feOffset/>
<feGaussianBlur stdDeviation="0.2"/>
<feComposite in2="hardAlpha" operator="out"/>
<feColorMatrix type="matrix" values="0 0 0 0 0 0 0 0 0 0 0 0 0 0 0 0 0 0 0.5 0"/>
<feBlend mode="normal" in2="BackgroundImageFix" result="effect1_dropShadow_7_237"/>
<feBlend mode="normal" in="SourceGraphic" in2="effect1_dropShadow_7_237" result="shape"/>
</filter>
<filter id="filter14_d_7_237" x="57.6977" y="27.8727" width="8.21699" height="4.18779" filterUnits="userSpaceOnUse" color-interpolation-filters="sRGB">
<feFlood flood-opacity="0" result="BackgroundImageFix"/>
<feColorMatrix in="SourceAlpha" type="matrix" values="0 0 0 0 0 0 0 0 0 0 0 0 0 0 0 0 0 0 127 0" result="hardAlpha"/>
<feOffset/>
<feGaussianBlur stdDeviation="0.2"/>
<feComposite in2="hardAlpha" operator="out"/>
<feColorMatrix type="matrix" values="0 0 0 0 0 0 0 0 0 0 0 0 0 0 0 0 0 0 0.5 0"/>
<feBlend mode="normal" in2="BackgroundImageFix" result="effect1_dropShadow_7_237"/>
<feBlend mode="normal" in="SourceGraphic" in2="effect1_dropShadow_7_237" result="shape"/>
</filter>
<filter id="filter15_d_7_237" x="57.6977" y="36.8727" width="8.0998" height="4.18779" filterUnits="userSpaceOnUse" color-interpolation-filters="sRGB">
<feFlood flood-opacity="0" result="BackgroundImageFix"/>
<feColorMatrix in="SourceAlpha" type="matrix" values="0 0 0 0 0 0 0 0 0 0 0 0 0 0 0 0 0 0 127 0" result="hardAlpha"/>
<feOffset/>
<feGaussianBlur stdDeviation="0.2"/>
<feComposite in2="hardAlpha" operator="out"/>
<feColorMatrix type="matrix" values="0 0 0 0 0 0 0 0 0 0 0 0 0 0 0 0 0 0 0.5 0"/>
<feBlend mode="normal" in2="BackgroundImageFix" result="effect1_dropShadow_7_237"/>
<feBlend mode="normal" in="SourceGraphic" in2="effect1_dropShadow_7_237" result="shape"/>
</filter>
<filter id="filter16_d_7_237" x="24.6977" y="31.8727" width="8.81535" height="4.18779" filterUnits="userSpaceOnUse" color-interpolation-filters="sRGB">
<feFlood flood-opacity="0" result="BackgroundImageFix"/>
<feColorMatrix in="SourceAlpha" type="matrix" values="0 0 0 0 0 0 0 0 0 0 0 0 0 0 0 0 0 0 127 0" result="hardAlpha"/>
<feOffset/>
<feGaussianBlur stdDeviation="0.2"/>
<feComposite in2="hardAlpha" operator="out"/>
<feColorMatrix type="matrix" values="0 0 0 0 0 0 0 0 0 0 0 0 0 0 0 0 0 0 0.5 0"/>
<feBlend mode="normal" in2="BackgroundImageFix" result="effect1_dropShadow_7_237"/>
<feBlend mode="normal" in="SourceGraphic" in2="effect1_dropShadow_7_237" result="shape"/>
</filter>
<filter id="filter17_d_7_237" x="24.6977" y="44.8727" width="8.82246" height="4.18779" filterUnits="userSpaceOnUse" color-interpolation-filters="sRGB">
<feFlood flood-opacity="0" result="BackgroundImageFix"/>
<feColorMatrix in="SourceAlpha" type="matrix" values="0 0 0 0 0 0 0 0 0 0 0 0 0 0 0 0 0 0 127 0" result="hardAlpha"/>
<feOffset/>
<feGaussianBlur stdDeviation="0.2"/>
<feComposite in2="hardAlpha" operator="out"/>
<feColorMatrix type="matrix" values="0 0 0 0 0 0 0 0 0 0 0 0 0 0 0 0 0 0 0.5 0"/>
<feBlend mode="normal" in2="BackgroundImageFix" result="effect1_dropShadow_7_237"/>
<feBlend mode="normal" in="SourceGraphic" in2="effect1_dropShadow_7_237" result="shape"/>
</filter>
<filter id="filter18_d_7_237" x="24.6977" y="37.8727" width="8.63691" height="4.18779" filterUnits="userSpaceOnUse" color-interpolation-filters="sRGB">
<feFlood flood-opacity="0" result="BackgroundImageFix"/>
<feColorMatrix in="SourceAlpha" type="matrix" values="0 0 0 0 0 0 0 0 0 0 0 0 0 0 0 0 0 0 127 0" result="hardAlpha"/>
<feOffset/>
<feGaussianBlur stdDeviation="0.2"/>
<feComposite in2="hardAlpha" operator="out"/>
<feColorMatrix type="matrix" values="0 0 0 0 0 0 0 0 0 0 0 0 0 0 0 0 0 0 0.5 0"/>
<feBlend mode="normal" in2="BackgroundImageFix" result="effect1_dropShadow_7_237"/>
<feBlend mode="normal" in="SourceGraphic" in2="effect1_dropShadow_7_237" result="shape"/>
</filter>
</defs>
</svg>
