<svg width="79" height="55" viewBox="0 0 79 55" fill="none" xmlns="http://www.w3.org/2000/svg">
<path d="M42.3161 5V1.36364H43.0724V2.73082H43.0955C43.1287 2.65743 43.1766 2.58286 43.2393 2.5071C43.3033 2.43016 43.3861 2.36624 43.4879 2.31534C43.5909 2.26326 43.7188 2.23722 43.8714 2.23722C44.0703 2.23722 44.2538 2.2893 44.4219 2.39347C44.59 2.49645 44.7243 2.65211 44.8249 2.86044C44.9255 3.06759 44.9759 3.32741 44.9759 3.63991C44.9759 3.94413 44.9267 4.20099 44.8285 4.41051C44.7314 4.61884 44.5988 4.77687 44.4308 4.88459C44.2638 4.99112 44.0768 5.04439 43.8697 5.04439C43.7229 5.04439 43.598 5.02012 43.495 4.97159C43.3932 4.92306 43.3098 4.8621 43.2447 4.78871C43.1796 4.71413 43.1299 4.63897 43.0955 4.56321H43.0618V5H42.3161ZM43.0565 3.63636C43.0565 3.79853 43.079 3.93999 43.1239 4.06072C43.1689 4.18146 43.234 4.27557 43.3192 4.34304C43.4045 4.40933 43.508 4.44247 43.63 4.44247C43.7531 4.44247 43.8572 4.40874 43.9425 4.34126C44.0277 4.27261 44.0922 4.17791 44.136 4.05717C44.181 3.93525 44.2035 3.79498 44.2035 3.63636C44.2035 3.47893 44.1816 3.34044 44.1378 3.22088C44.094 3.10133 44.0295 3.00781 43.9442 2.94034C43.859 2.87287 43.7543 2.83913 43.63 2.83913C43.5069 2.83913 43.4027 2.87169 43.3175 2.93679C43.2334 3.00189 43.1689 3.09422 43.1239 3.21378C43.079 3.33333 43.0565 3.4742 43.0565 3.63636ZM46.1766 5.66051C46.0073 5.66051 45.8593 5.62027 45.7327 5.53977C45.6072 5.45928 45.5096 5.34801 45.4397 5.20597C45.3711 5.0651 45.3367 4.90412 45.3367 4.72301C45.3367 4.5419 45.3711 4.38092 45.4397 4.24006C45.5096 4.09801 45.6072 3.98674 45.7327 3.90625C45.8593 3.82457 46.0073 3.78374 46.1766 3.78374C46.3825 3.78374 46.5542 3.84174 46.6915 3.95774C46.8288 4.07375 46.9069 4.22704 46.9259 4.41761H46.6027C46.5873 4.31937 46.5423 4.23414 46.4678 4.16193C46.3944 4.08854 46.2991 4.05185 46.1819 4.05185C46.0848 4.05185 45.9978 4.07966 45.9209 4.1353C45.8451 4.19093 45.7854 4.26847 45.7416 4.3679C45.699 4.46733 45.6776 4.58393 45.6776 4.71768C45.6776 4.85144 45.6984 4.96863 45.7398 5.06925C45.7824 5.16986 45.8416 5.24799 45.9173 5.30362C45.9931 5.35926 46.0813 5.38707 46.1819 5.38707C46.2813 5.38707 46.3719 5.3563 46.4536 5.29474C46.5352 5.23319 46.5856 5.14205 46.6045 5.02131H46.9276C46.9087 5.21188 46.8318 5.36577 46.6968 5.48295C46.5619 5.60133 46.3885 5.66051 46.1766 5.66051Z" fill="white"/>
<path d="M42.3161 24V20.3636H43.0724V21.7308H43.0955C43.1287 21.6574 43.1766 21.5829 43.2393 21.5071C43.3033 21.4302 43.3861 21.3662 43.4879 21.3153C43.5909 21.2633 43.7188 21.2372 43.8714 21.2372C44.0703 21.2372 44.2538 21.2893 44.4219 21.3935C44.59 21.4964 44.7243 21.6521 44.8249 21.8604C44.9255 22.0676 44.9759 22.3274 44.9759 22.6399C44.9759 22.9441 44.9267 23.201 44.8285 23.4105C44.7314 23.6188 44.5988 23.7769 44.4308 23.8846C44.2638 23.9911 44.0768 24.0444 43.8697 24.0444C43.7229 24.0444 43.598 24.0201 43.495 23.9716C43.3932 23.9231 43.3098 23.8621 43.2447 23.7887C43.1796 23.7141 43.1299 23.639 43.0955 23.5632H43.0618V24H42.3161ZM43.0565 22.6364C43.0565 22.7985 43.079 22.94 43.1239 23.0607C43.1689 23.1815 43.234 23.2756 43.3192 23.343C43.4045 23.4093 43.508 23.4425 43.63 23.4425C43.7531 23.4425 43.8572 23.4087 43.9425 23.3413C44.0277 23.2726 44.0922 23.1779 44.136 23.0572C44.181 22.9353 44.2035 22.795 44.2035 22.6364C44.2035 22.4789 44.1816 22.3404 44.1378 22.2209C44.094 22.1013 44.0295 22.0078 43.9442 21.9403C43.859 21.8729 43.7543 21.8391 43.63 21.8391C43.5069 21.8391 43.4027 21.8717 43.3175 21.9368C43.2334 22.0019 43.1689 22.0942 43.1239 22.2138C43.079 22.3333 43.0565 22.4742 43.0565 22.6364ZM46.9685 24.625H46.6418V24.277H46.6205C46.5956 24.3385 46.5601 24.3989 46.5139 24.4581C46.4678 24.5173 46.408 24.5658 46.3346 24.6037C46.2624 24.6416 46.1748 24.6605 46.0718 24.6605C45.931 24.6605 45.8055 24.622 45.6954 24.5451C45.5865 24.4693 45.5001 24.361 45.4362 24.2202C45.3734 24.0805 45.3421 23.9148 45.3421 23.723C45.3421 23.5277 45.374 23.3602 45.4379 23.2205C45.5019 23.0797 45.5889 22.9719 45.699 22.8974C45.809 22.8216 45.9333 22.7837 46.0718 22.7837C46.1713 22.7837 46.2571 22.8021 46.3293 22.8388C46.4027 22.8755 46.463 22.9234 46.5104 22.9826C46.5589 23.0406 46.5956 23.1027 46.6205 23.169H46.6347V22.2031H46.9685V24.625ZM46.6418 23.7177C46.6418 23.5271 46.5998 23.3697 46.5157 23.2454C46.4317 23.1211 46.3139 23.0589 46.1624 23.0589C46.0097 23.0589 45.8913 23.1223 45.8073 23.2489C45.7244 23.3744 45.683 23.5307 45.683 23.7177C45.683 23.8455 45.7019 23.9592 45.7398 24.0586C45.7777 24.1592 45.8321 24.2379 45.9031 24.2947C45.9753 24.3527 46.0618 24.3817 46.1624 24.3817C46.2618 24.3817 46.347 24.3533 46.4181 24.2965C46.4903 24.2397 46.5453 24.1616 46.5832 24.0621C46.6222 23.9627 46.6418 23.8479 46.6418 23.7177Z" fill="white"/>
<path d="M42.3161 45V41.3636H43.0724V42.7308H43.0955C43.1287 42.6574 43.1766 42.5829 43.2393 42.5071C43.3033 42.4302 43.3861 42.3662 43.4879 42.3153C43.5909 42.2633 43.7188 42.2372 43.8714 42.2372C44.0703 42.2372 44.2538 42.2893 44.4219 42.3935C44.59 42.4964 44.7243 42.6521 44.8249 42.8604C44.9255 43.0676 44.9759 43.3274 44.9759 43.6399C44.9759 43.9441 44.9267 44.201 44.8285 44.4105C44.7314 44.6188 44.5988 44.7769 44.4308 44.8846C44.2638 44.9911 44.0768 45.0444 43.8697 45.0444C43.7229 45.0444 43.598 45.0201 43.495 44.9716C43.3932 44.9231 43.3098 44.8621 43.2447 44.7887C43.1796 44.7141 43.1299 44.639 43.0955 44.5632H43.0618V45H42.3161ZM43.0565 43.6364C43.0565 43.7985 43.079 43.94 43.1239 44.0607C43.1689 44.1815 43.234 44.2756 43.3192 44.343C43.4045 44.4093 43.508 44.4425 43.63 44.4425C43.7531 44.4425 43.8572 44.4087 43.9425 44.3413C44.0277 44.2726 44.0922 44.1779 44.136 44.0572C44.181 43.9353 44.2035 43.795 44.2035 43.6364C44.2035 43.4789 44.1816 43.3404 44.1378 43.2209C44.094 43.1013 44.0295 43.0078 43.9442 42.9403C43.859 42.8729 43.7543 42.8391 43.63 42.8391C43.5069 42.8391 43.4027 42.8717 43.3175 42.9368C43.2334 43.0019 43.1689 43.0942 43.1239 43.2138C43.079 43.3333 43.0565 43.4742 43.0565 43.6364ZM46.1926 45.6605C46.0186 45.6605 45.867 45.6209 45.738 45.5415C45.6102 45.4634 45.5113 45.3539 45.4415 45.2131C45.3717 45.0722 45.3367 44.9089 45.3367 44.723C45.3367 44.5395 45.3717 44.3774 45.4415 44.2365C45.5125 44.0945 45.6102 43.9838 45.7345 43.9045C45.8599 43.824 46.0044 43.7837 46.1677 43.7837C46.318 43.7837 46.4542 43.8192 46.5761 43.8903C46.698 43.9601 46.7951 44.0619 46.8673 44.1957C46.9395 44.3294 46.9756 44.4916 46.9756 44.6822V44.7958H45.4841V44.5774H46.6578C46.6578 44.4756 46.637 44.3851 46.5956 44.3058C46.5542 44.2253 46.4968 44.1619 46.4234 44.1158C46.35 44.0696 46.2671 44.0465 46.1748 44.0465C46.0777 44.0465 45.9913 44.072 45.9156 44.1229C45.8398 44.1738 45.78 44.2418 45.7362 44.3271C45.6936 44.4123 45.6723 44.5064 45.6723 44.6094V44.794C45.6711 44.9728 45.7179 45.1184 45.8126 45.2308C45.9085 45.3433 46.0375 45.3995 46.1997 45.3995C46.2754 45.3995 46.3423 45.3871 46.4003 45.3622C46.4595 45.3374 46.5086 45.3054 46.5477 45.2663C46.5867 45.2285 46.6151 45.1882 46.6329 45.1456L46.9401 45.1829C46.901 45.3178 46.817 45.4309 46.6879 45.522C46.5589 45.6143 46.3938 45.6605 46.1926 45.6605Z" fill="white"/>
<circle cx="8" cy="22" r="5" fill="#FF0000"/>
<circle cx="8" cy="41" r="5" fill="#FF0000"/>
<circle cx="8" cy="22" r="5" fill="white"/>
<circle cx="8" cy="41" r="5" fill="white"/>
<circle cx="74" cy="30" r="5" fill="white"/>
<circle cx="41" cy="10" r="5" fill="white"/>
<circle cx="41" cy="30" r="5" fill="white"/>
<circle cx="41" cy="50" r="5" fill="white"/>
<line x1="8.1178" y1="22.5141" x2="41.1178" y2="30.5141" stroke="#24FF00"/>
<line x1="7.84189" y1="41.5257" x2="40.8419" y2="30.5257" stroke="#24FF00"/>
<path d="M1.07955 18.0515C0.90554 18.0515 0.750474 18.0213 0.614347 17.9609C0.47822 17.8994 0.370502 17.8088 0.291193 17.6893C0.213068 17.5685 0.174006 17.4182 0.174006 17.2383C0.174006 17.0868 0.201823 16.9595 0.257457 16.8565C0.313092 16.7536 0.388849 16.6707 0.48473 16.608C0.580611 16.5452 0.689512 16.4979 0.811435 16.4659C0.934541 16.4339 1.06357 16.4115 1.19851 16.3984C1.35713 16.3819 1.48497 16.3665 1.58203 16.3523C1.6791 16.3369 1.74953 16.3144 1.79332 16.2848C1.83712 16.2552 1.85902 16.2114 1.85902 16.1534V16.1428C1.85902 16.0303 1.82351 15.9433 1.75249 15.8817C1.68265 15.8202 1.58321 15.7894 1.45419 15.7894C1.31806 15.7894 1.20975 15.8196 1.12926 15.88C1.04877 15.9392 0.995502 16.0137 0.96946 16.1037L0.269886 16.0469C0.305398 15.8812 0.375237 15.7379 0.479403 15.6172C0.58357 15.4953 0.717921 15.4018 0.882457 15.3366C1.04818 15.2704 1.23994 15.2372 1.45774 15.2372C1.60926 15.2372 1.75426 15.255 1.89276 15.2905C2.03243 15.326 2.15613 15.381 2.26385 15.4556C2.37275 15.5302 2.45857 15.6261 2.52131 15.7433C2.58404 15.8593 2.61541 15.9983 2.61541 16.1605V18H1.89808V17.6218H1.87678C1.83298 17.707 1.77438 17.7822 1.70099 17.8473C1.6276 17.9112 1.53942 17.9615 1.43643 17.9982C1.33345 18.0337 1.21449 18.0515 1.07955 18.0515ZM1.29616 17.5295C1.40743 17.5295 1.50568 17.5076 1.59091 17.4638C1.67614 17.4188 1.74302 17.3584 1.79155 17.2827C1.84008 17.2069 1.86435 17.1211 1.86435 17.0252V16.7358C1.84067 16.7512 1.80812 16.7654 1.76669 16.7784C1.72644 16.7902 1.68087 16.8015 1.62997 16.8121C1.57907 16.8216 1.52817 16.8305 1.47727 16.8388C1.42637 16.8459 1.38021 16.8524 1.33878 16.8583C1.25 16.8713 1.17247 16.892 1.10618 16.9205C1.03989 16.9489 0.9884 16.9873 0.951705 17.0359C0.91501 17.0832 0.896662 17.1424 0.896662 17.2134C0.896662 17.3164 0.933949 17.3951 1.00852 17.4496C1.08428 17.5028 1.18016 17.5295 1.29616 17.5295Z" fill="white"/>
<path d="M0.316051 38V34.3636H1.07244V35.7308H1.09553C1.12867 35.6574 1.17661 35.5829 1.23935 35.5071C1.30327 35.4302 1.38613 35.3662 1.48793 35.3153C1.59091 35.2633 1.71875 35.2372 1.87145 35.2372C2.07031 35.2372 2.25379 35.2893 2.42188 35.3935C2.58996 35.4964 2.72431 35.6521 2.82493 35.8604C2.92554 36.0676 2.97585 36.3274 2.97585 36.6399C2.97585 36.9441 2.92673 37.201 2.82848 37.4105C2.73142 37.6188 2.59884 37.7769 2.43075 37.8846C2.26385 37.9911 2.07682 38.0444 1.86967 38.0444C1.72289 38.0444 1.59801 38.0201 1.49503 37.9716C1.39323 37.9231 1.30978 37.8621 1.24467 37.7887C1.17957 37.7141 1.12985 37.639 1.09553 37.5632H1.06179V38H0.316051ZM1.05646 36.6364C1.05646 36.7985 1.07895 36.94 1.12393 37.0607C1.16892 37.1815 1.23402 37.2756 1.31925 37.343C1.40447 37.4093 1.50805 37.4425 1.62997 37.4425C1.75308 37.4425 1.85724 37.4087 1.94247 37.3413C2.0277 37.2726 2.09221 37.1779 2.13601 37.0572C2.18099 36.9353 2.20348 36.795 2.20348 36.6364C2.20348 36.4789 2.18158 36.3404 2.13778 36.2209C2.09399 36.1013 2.02947 36.0078 1.94425 35.9403C1.85902 35.8729 1.75426 35.8391 1.62997 35.8391C1.50687 35.8391 1.4027 35.8717 1.31747 35.9368C1.23343 36.0019 1.16892 36.0942 1.12393 36.2138C1.07895 36.3333 1.05646 36.4742 1.05646 36.6364Z" fill="white"/>
<path d="M35.5341 6.05327C35.2547 6.05327 35.0144 5.99408 34.8132 5.87571C34.6132 5.75616 34.4593 5.59044 34.3516 5.37855C34.245 5.16667 34.1918 4.92282 34.1918 4.64702C34.1918 4.36766 34.2456 4.12263 34.3533 3.91193C34.4622 3.70005 34.6167 3.53492 34.8168 3.41655C35.0168 3.29699 35.2547 3.23722 35.5305 3.23722C35.7685 3.23722 35.9768 3.28042 36.1555 3.36683C36.3343 3.45324 36.4757 3.57457 36.5799 3.73082C36.6841 3.88707 36.7415 4.07055 36.7521 4.28125H36.0384C36.0182 4.14512 35.965 4.03563 35.8786 3.95277C35.7933 3.86873 35.6815 3.8267 35.543 3.8267C35.4258 3.8267 35.3234 3.85866 35.2358 3.92259C35.1494 3.98532 35.0819 4.07706 35.0334 4.1978C34.9848 4.31854 34.9606 4.46473 34.9606 4.63636C34.9606 4.81037 34.9843 4.95833 35.0316 5.08026C35.0801 5.20218 35.1482 5.2951 35.2358 5.35902C35.3234 5.42294 35.4258 5.4549 35.543 5.4549C35.6294 5.4549 35.7069 5.43714 35.7756 5.40163C35.8454 5.36612 35.9028 5.31463 35.9478 5.24716C35.994 5.1785 36.0241 5.09624 36.0384 5.00036H36.7521C36.7403 5.20869 36.6835 5.39216 36.5817 5.55078C36.4811 5.70821 36.342 5.83132 36.1644 5.9201C35.9869 6.00888 35.7768 6.05327 35.5341 6.05327Z" fill="white"/>
<path d="M35.3068 26.0444C35.0997 26.0444 34.9121 25.9911 34.744 25.8846C34.5771 25.7769 34.4445 25.6188 34.3462 25.4105C34.2492 25.201 34.2006 24.9441 34.2006 24.6399C34.2006 24.3274 34.2509 24.0676 34.3516 23.8604C34.4522 23.6521 34.5859 23.4964 34.7528 23.3935C34.9209 23.2893 35.105 23.2372 35.305 23.2372C35.4577 23.2372 35.585 23.2633 35.6868 23.3153C35.7898 23.3662 35.8726 23.4302 35.9354 23.5071C35.9993 23.5829 36.0478 23.6574 36.081 23.7308H36.104V22.3636H36.8587V26H36.1129V25.5632H36.081C36.0455 25.639 35.9951 25.7141 35.93 25.7887C35.8661 25.8621 35.7827 25.9231 35.6797 25.9716C35.5779 26.0201 35.4536 26.0444 35.3068 26.0444ZM35.5465 25.4425C35.6684 25.4425 35.7714 25.4093 35.8555 25.343C35.9407 25.2756 36.0058 25.1815 36.0508 25.0607C36.0969 24.94 36.12 24.7985 36.12 24.6364C36.12 24.4742 36.0975 24.3333 36.0526 24.2138C36.0076 24.0942 35.9425 24.0019 35.8572 23.9368C35.772 23.8717 35.6684 23.8391 35.5465 23.8391C35.4222 23.8391 35.3175 23.8729 35.2322 23.9403C35.147 24.0078 35.0825 24.1013 35.0387 24.2209C34.9949 24.3404 34.973 24.4789 34.973 24.6364C34.973 24.795 34.9949 24.9353 35.0387 25.0572C35.0837 25.1779 35.1482 25.2726 35.2322 25.3413C35.3175 25.4087 35.4222 25.4425 35.5465 25.4425Z" fill="white"/>
<path d="M35.5447 45.0533C35.2642 45.0533 35.0227 44.9964 34.8203 44.8828C34.6191 44.768 34.464 44.6058 34.3551 44.3963C34.2462 44.1856 34.1918 43.9364 34.1918 43.6488C34.1918 43.3683 34.2462 43.122 34.3551 42.9102C34.464 42.6983 34.6173 42.5331 34.815 42.4148C35.0138 42.2964 35.247 42.2372 35.5146 42.2372C35.6945 42.2372 35.862 42.2662 36.017 42.3242C36.1733 42.381 36.3094 42.4669 36.4254 42.5817C36.5426 42.6965 36.6338 42.8409 36.6989 43.0149C36.764 43.1877 36.7965 43.3902 36.7965 43.6222V43.8299H34.4936V43.3612H36.0845C36.0845 43.2522 36.0608 43.1558 36.0135 43.0717C35.9661 42.9877 35.9004 42.922 35.8164 42.8746C35.7335 42.8261 35.6371 42.8018 35.527 42.8018C35.4122 42.8018 35.3104 42.8285 35.2216 42.8817C35.134 42.9338 35.0653 43.0043 35.0156 43.093C34.9659 43.1806 34.9405 43.2783 34.9393 43.386V43.8317C34.9393 43.9666 34.9641 44.0832 35.0138 44.1815C35.0647 44.2797 35.1364 44.3555 35.2287 44.4087C35.321 44.462 35.4305 44.4886 35.5572 44.4886C35.6412 44.4886 35.7182 44.4768 35.788 44.4531C35.8578 44.4295 35.9176 44.3939 35.9673 44.3466C36.017 44.2992 36.0549 44.2412 36.081 44.1726L36.7805 44.2188C36.745 44.3868 36.6722 44.5336 36.5621 44.6591C36.4532 44.7834 36.3124 44.8804 36.1396 44.9503C35.9679 45.0189 35.7696 45.0533 35.5447 45.0533Z" fill="white"/>
<path d="M69.7685 23.2727V23.8409H68.0852V23.2727H69.7685ZM68.4705 26V23.0756C68.4705 22.878 68.509 22.714 68.5859 22.5838C68.6641 22.4536 68.7706 22.3559 68.9055 22.2908C69.0405 22.2257 69.1938 22.1932 69.3654 22.1932C69.4814 22.1932 69.5874 22.2021 69.6832 22.2198C69.7803 22.2376 69.8525 22.2536 69.8999 22.2678L69.7649 22.8359C69.7353 22.8265 69.6986 22.8176 69.6548 22.8093C69.6122 22.801 69.5684 22.7969 69.5234 22.7969C69.4122 22.7969 69.3346 22.8229 69.2908 22.875C69.247 22.9259 69.2251 22.9975 69.2251 23.0898V26H68.4705Z" fill="white"/>
<path d="M19.8398 29L19.0977 26.2727H19.8629L20.2855 28.1051H20.3104L20.7507 26.2727H21.5018L21.9492 28.0945H21.9723L22.3878 26.2727H23.1513L22.4109 29H21.6101L21.1413 27.2848H21.1076L20.6388 29H19.8398ZM23.9969 29.6605C23.8892 29.6605 23.7909 29.6398 23.7021 29.5984C23.6134 29.5581 23.5429 29.4978 23.4909 29.4173C23.4388 29.3379 23.4127 29.2397 23.4127 29.1225C23.4127 29.0361 23.4281 28.9615 23.4589 28.8988C23.4897 28.8361 23.5347 28.7834 23.5938 28.7408C23.6542 28.6982 23.7264 28.6638 23.8105 28.6378C23.8957 28.6106 23.9904 28.5916 24.0945 28.581C24.2046 28.5691 24.2934 28.5585 24.3609 28.549C24.4284 28.5395 24.4775 28.5247 24.5083 28.5046C24.539 28.4833 24.5544 28.4508 24.5544 28.407V28.3679C24.5544 28.2661 24.5219 28.1862 24.4568 28.1282C24.3917 28.0702 24.3029 28.0412 24.1904 28.0412C24.0863 28.0412 23.9981 28.0649 23.9259 28.1122C23.8548 28.1584 23.8075 28.2187 23.7838 28.2933L23.4678 28.2525C23.508 28.1093 23.5915 27.9956 23.7181 27.9116C23.846 27.8263 24.0046 27.7837 24.194 27.7837C24.3183 27.7837 24.4337 27.805 24.5402 27.8477C24.6468 27.8903 24.7326 27.9554 24.7977 28.043C24.8628 28.1306 24.8953 28.2412 24.8953 28.375V29.625H24.5722V29.3374H24.5597C24.5148 29.4261 24.4449 29.5019 24.3502 29.5646C24.2567 29.6286 24.1389 29.6605 23.9969 29.6605ZM24.0821 29.4173C24.1744 29.4173 24.2567 29.396 24.3289 29.3533C24.4011 29.3119 24.4574 29.2545 24.4976 29.1811C24.539 29.1077 24.5597 29.0249 24.5597 28.9325V28.7035C24.5384 28.7189 24.5041 28.7337 24.4568 28.7479C24.4106 28.7621 24.3597 28.7739 24.3041 28.7834C24.2484 28.7929 24.1981 28.8005 24.1531 28.8065C24.0028 28.8254 23.8951 28.8603 23.83 28.9112C23.7661 28.9609 23.7341 29.0296 23.7341 29.1172C23.7341 29.2095 23.7673 29.2823 23.8335 29.3356C23.901 29.39 23.9839 29.4173 24.0821 29.4173ZM26.9275 29.625H26.6008V29.277H26.5795C26.5546 29.3385 26.5191 29.3989 26.4729 29.4581C26.4268 29.5173 26.367 29.5658 26.2936 29.6037C26.2214 29.6416 26.1338 29.6605 26.0308 29.6605C25.8899 29.6605 25.7645 29.622 25.6544 29.5451C25.5455 29.4693 25.4591 29.361 25.3952 29.2202C25.3324 29.0805 25.301 28.9148 25.301 28.723C25.301 28.5277 25.333 28.3602 25.3969 28.2205C25.4608 28.0797 25.5479 27.9719 25.6579 27.8974C25.768 27.8216 25.8923 27.7837 26.0308 27.7837C26.1302 27.7837 26.2161 27.8021 26.2883 27.8388C26.3617 27.8755 26.422 27.9234 26.4694 27.9826C26.5179 28.0406 26.5546 28.1027 26.5795 28.169H26.5937V27.2031H26.9275V29.625ZM26.6008 28.7177C26.6008 28.5271 26.5587 28.3697 26.4747 28.2454C26.3907 28.1211 26.2729 28.0589 26.1214 28.0589C25.9687 28.0589 25.8503 28.1223 25.7662 28.2489C25.6834 28.3744 25.642 28.5307 25.642 28.7177C25.642 28.8455 25.6609 28.9592 25.6988 29.0586C25.7367 29.1592 25.7911 29.2379 25.8621 29.2947C25.9343 29.3527 26.0207 29.3817 26.1214 29.3817C26.2208 29.3817 26.306 29.3533 26.377 29.2965C26.4492 29.2397 26.5043 29.1616 26.5422 29.0621C26.5812 28.9627 26.6008 28.8479 26.6008 28.7177Z" fill="white"/>
<path d="M19.8398 39L19.0977 36.2727H19.8629L20.2855 38.1051H20.3104L20.7507 36.2727H21.5018L21.9492 38.0945H21.9723L22.3878 36.2727H23.1513L22.4109 39H21.6101L21.1413 37.2848H21.1076L20.6388 39H19.8398ZM23.5317 39.625V37.2031H23.8655V38.169H23.8797C23.9069 38.1027 23.9442 38.0406 23.9916 37.9826C24.0389 37.9234 24.0987 37.8755 24.1709 37.8388C24.2443 37.8021 24.3325 37.7837 24.4355 37.7837C24.5716 37.7837 24.6941 37.8216 24.803 37.8974C24.9119 37.9719 24.9983 38.0797 25.0622 38.2205C25.1262 38.3602 25.1581 38.5277 25.1581 38.723C25.1581 38.9148 25.1267 39.0805 25.064 39.2202C25.0025 39.361 24.9172 39.4693 24.8083 39.5451C24.7006 39.622 24.5763 39.6605 24.4355 39.6605C24.336 39.6605 24.2496 39.6422 24.1762 39.6055C24.1028 39.5688 24.0419 39.5214 23.9933 39.4634C23.9448 39.4054 23.9069 39.3433 23.8797 39.277H23.8655V39.625H23.5317ZM23.8602 38.7177C23.8602 38.913 23.9022 39.0722 23.9862 39.1953C24.0715 39.3196 24.1887 39.3817 24.3378 39.3817C24.4396 39.3817 24.526 39.3527 24.597 39.2947C24.6681 39.2367 24.7225 39.1574 24.7604 39.0568C24.7983 38.9562 24.8172 38.8432 24.8172 38.7177C24.8172 38.5271 24.7752 38.3697 24.6911 38.2454C24.6083 38.1211 24.4905 38.0589 24.3378 38.0589C24.2384 38.0589 24.1526 38.0868 24.0803 38.1424C24.0093 38.198 23.9549 38.2756 23.917 38.375C23.8791 38.4744 23.8602 38.5887 23.8602 38.7177ZM27.113 39.625H26.7863V39.277H26.765C26.7401 39.3385 26.7046 39.3989 26.6585 39.4581C26.6123 39.5173 26.5525 39.5658 26.4791 39.6037C26.4069 39.6416 26.3193 39.6605 26.2164 39.6605C26.0755 39.6605 25.95 39.622 25.8399 39.5451C25.731 39.4693 25.6446 39.361 25.5807 39.2202C25.518 39.0805 25.4866 38.9148 25.4866 38.723C25.4866 38.5277 25.5186 38.3602 25.5825 38.2205C25.6464 38.0797 25.7334 37.9719 25.8435 37.8974C25.9536 37.8216 26.0779 37.7837 26.2164 37.7837C26.3158 37.7837 26.4016 37.8021 26.4738 37.8388C26.5472 37.8755 26.6076 37.9234 26.6549 37.9826C26.7035 38.0406 26.7401 38.1027 26.765 38.169H26.7792V37.2031H27.113V39.625ZM26.7863 38.7177C26.7863 38.5271 26.7443 38.3697 26.6602 38.2454C26.5762 38.1211 26.4584 38.0589 26.3069 38.0589C26.1542 38.0589 26.0358 38.1223 25.9518 38.2489C25.8689 38.3744 25.8275 38.5307 25.8275 38.7177C25.8275 38.8455 25.8464 38.9592 25.8843 39.0586C25.9222 39.1592 25.9767 39.2379 26.0477 39.2947C26.1199 39.3527 26.2063 39.3817 26.3069 39.3817C26.4063 39.3817 26.4916 39.3533 26.5626 39.2965C26.6348 39.2397 26.6898 39.1616 26.7277 39.0621C26.7668 38.9627 26.7863 38.8479 26.7863 38.7177Z" fill="white"/>
</svg>
