<svg width="79" height="56" viewBox="0 0 79 56" fill="none" xmlns="http://www.w3.org/2000/svg">
<circle cx="8" cy="23" r="5" fill="#FF0000"/>
<circle cx="8" cy="42" r="5" fill="#FF0000"/>
<circle cx="8" cy="23" r="5" fill="white"/>
<circle cx="8" cy="42" r="5" fill="white"/>
<circle cx="74" cy="31" r="5" fill="white"/>
<circle cx="41" cy="11" r="5" fill="white"/>
<circle cx="41" cy="31" r="5" fill="white"/>
<circle cx="41" cy="51" r="5" fill="white"/>
<line x1="7.81674" y1="23.5348" x2="40.8167" y2="10.5348" stroke="#FF0000"/>
<line x1="7.65193" y1="42.641" x2="40.6519" y2="10.641" stroke="#FF0000"/>
<path d="M1.07955 19.0515C0.90554 19.0515 0.750474 19.0213 0.614347 18.9609C0.47822 18.8994 0.370502 18.8088 0.291193 18.6893C0.213068 18.5685 0.174006 18.4182 0.174006 18.2383C0.174006 18.0868 0.201823 17.9595 0.257457 17.8565C0.313092 17.7536 0.388849 17.6707 0.48473 17.608C0.580611 17.5452 0.689512 17.4979 0.811435 17.4659C0.934541 17.4339 1.06357 17.4115 1.19851 17.3984C1.35713 17.3819 1.48497 17.3665 1.58203 17.3523C1.6791 17.3369 1.74953 17.3144 1.79332 17.2848C1.83712 17.2552 1.85902 17.2114 1.85902 17.1534V17.1428C1.85902 17.0303 1.82351 16.9433 1.75249 16.8817C1.68265 16.8202 1.58321 16.7894 1.45419 16.7894C1.31806 16.7894 1.20975 16.8196 1.12926 16.88C1.04877 16.9392 0.995502 17.0137 0.96946 17.1037L0.269886 17.0469C0.305398 16.8812 0.375237 16.7379 0.479403 16.6172C0.58357 16.4953 0.717921 16.4018 0.882457 16.3366C1.04818 16.2704 1.23994 16.2372 1.45774 16.2372C1.60926 16.2372 1.75426 16.255 1.89276 16.2905C2.03243 16.326 2.15613 16.381 2.26385 16.4556C2.37275 16.5302 2.45857 16.6261 2.52131 16.7433C2.58404 16.8593 2.61541 16.9983 2.61541 17.1605V19H1.89808V18.6218H1.87678C1.83298 18.707 1.77438 18.7822 1.70099 18.8473C1.6276 18.9112 1.53942 18.9615 1.43643 18.9982C1.33345 19.0337 1.21449 19.0515 1.07955 19.0515ZM1.29616 18.5295C1.40743 18.5295 1.50568 18.5076 1.59091 18.4638C1.67614 18.4188 1.74302 18.3584 1.79155 18.2827C1.84008 18.2069 1.86435 18.1211 1.86435 18.0252V17.7358C1.84067 17.7512 1.80812 17.7654 1.76669 17.7784C1.72644 17.7902 1.68087 17.8015 1.62997 17.8121C1.57907 17.8216 1.52817 17.8305 1.47727 17.8388C1.42637 17.8459 1.38021 17.8524 1.33878 17.8583C1.25 17.8713 1.17247 17.892 1.10618 17.9205C1.03989 17.9489 0.9884 17.9873 0.951705 18.0359C0.91501 18.0832 0.896662 18.1424 0.896662 18.2134C0.896662 18.3164 0.933949 18.3951 1.00852 18.4496C1.08428 18.5028 1.18016 18.5295 1.29616 18.5295Z" fill="white"/>
<path d="M0.316051 39V35.3636H1.07244V36.7308H1.09553C1.12867 36.6574 1.17661 36.5829 1.23935 36.5071C1.30327 36.4302 1.38613 36.3662 1.48793 36.3153C1.59091 36.2633 1.71875 36.2372 1.87145 36.2372C2.07031 36.2372 2.25379 36.2893 2.42188 36.3935C2.58996 36.4964 2.72431 36.6521 2.82493 36.8604C2.92554 37.0676 2.97585 37.3274 2.97585 37.6399C2.97585 37.9441 2.92673 38.201 2.82848 38.4105C2.73142 38.6188 2.59884 38.7769 2.43075 38.8846C2.26385 38.9911 2.07682 39.0444 1.86967 39.0444C1.72289 39.0444 1.59801 39.0201 1.49503 38.9716C1.39323 38.9231 1.30978 38.8621 1.24467 38.7887C1.17957 38.7141 1.12985 38.639 1.09553 38.5632H1.06179V39H0.316051ZM1.05646 37.6364C1.05646 37.7985 1.07895 37.94 1.12393 38.0607C1.16892 38.1815 1.23402 38.2756 1.31925 38.343C1.40447 38.4093 1.50805 38.4425 1.62997 38.4425C1.75308 38.4425 1.85724 38.4087 1.94247 38.3413C2.0277 38.2726 2.09221 38.1779 2.13601 38.0572C2.18099 37.9353 2.20348 37.795 2.20348 37.6364C2.20348 37.4789 2.18158 37.3404 2.13778 37.2209C2.09399 37.1013 2.02947 37.0078 1.94425 36.9403C1.85902 36.8729 1.75426 36.8391 1.62997 36.8391C1.50687 36.8391 1.4027 36.8717 1.31747 36.9368C1.23343 37.0019 1.16892 37.0942 1.12393 37.2138C1.07895 37.3333 1.05646 37.4742 1.05646 37.6364Z" fill="white"/>
<path d="M35.5341 7.05327C35.2547 7.05327 35.0144 6.99408 34.8132 6.87571C34.6132 6.75616 34.4593 6.59044 34.3516 6.37855C34.245 6.16667 34.1918 5.92282 34.1918 5.64702C34.1918 5.36766 34.2456 5.12263 34.3533 4.91193C34.4622 4.70005 34.6167 4.53492 34.8168 4.41655C35.0168 4.29699 35.2547 4.23722 35.5305 4.23722C35.7685 4.23722 35.9768 4.28042 36.1555 4.36683C36.3343 4.45324 36.4757 4.57457 36.5799 4.73082C36.6841 4.88707 36.7415 5.07055 36.7521 5.28125H36.0384C36.0182 5.14512 35.965 5.03563 35.8786 4.95277C35.7933 4.86873 35.6815 4.8267 35.543 4.8267C35.4258 4.8267 35.3234 4.85866 35.2358 4.92259C35.1494 4.98532 35.0819 5.07706 35.0334 5.1978C34.9848 5.31854 34.9606 5.46473 34.9606 5.63636C34.9606 5.81037 34.9843 5.95833 35.0316 6.08026C35.0801 6.20218 35.1482 6.2951 35.2358 6.35902C35.3234 6.42294 35.4258 6.4549 35.543 6.4549C35.6294 6.4549 35.7069 6.43714 35.7756 6.40163C35.8454 6.36612 35.9028 6.31463 35.9478 6.24716C35.994 6.1785 36.0241 6.09624 36.0384 6.00036H36.7521C36.7403 6.20869 36.6835 6.39216 36.5817 6.55078C36.4811 6.70821 36.342 6.83132 36.1644 6.9201C35.9869 7.00888 35.7768 7.05327 35.5341 7.05327Z" fill="white"/>
<path d="M17.8398 19L17.0977 16.2727H17.8629L18.2855 18.1051H18.3104L18.7507 16.2727H19.5018L19.9492 18.0945H19.9723L20.3878 16.2727H21.1513L20.4109 19H19.6101L19.1413 17.2848H19.1076L18.6388 19H17.8398ZM21.9969 19.6605C21.8892 19.6605 21.7909 19.6398 21.7021 19.5984C21.6134 19.5581 21.5429 19.4978 21.4909 19.4173C21.4388 19.3379 21.4127 19.2397 21.4127 19.1225C21.4127 19.0361 21.4281 18.9615 21.4589 18.8988C21.4897 18.8361 21.5347 18.7834 21.5938 18.7408C21.6542 18.6982 21.7264 18.6638 21.8105 18.6378C21.8957 18.6106 21.9904 18.5916 22.0945 18.581C22.2046 18.5691 22.2934 18.5585 22.3609 18.549C22.4284 18.5395 22.4775 18.5247 22.5083 18.5046C22.539 18.4833 22.5544 18.4508 22.5544 18.407V18.3679C22.5544 18.2661 22.5219 18.1862 22.4568 18.1282C22.3917 18.0702 22.3029 18.0412 22.1904 18.0412C22.0863 18.0412 21.9981 18.0649 21.9259 18.1122C21.8548 18.1584 21.8075 18.2187 21.7838 18.2933L21.4678 18.2525C21.508 18.1093 21.5915 17.9956 21.7181 17.9116C21.846 17.8263 22.0046 17.7837 22.194 17.7837C22.3183 17.7837 22.4337 17.805 22.5402 17.8477C22.6468 17.8903 22.7326 17.9554 22.7977 18.043C22.8628 18.1306 22.8953 18.2412 22.8953 18.375V19.625H22.5722V19.3374H22.5597C22.5148 19.4261 22.4449 19.5019 22.3502 19.5646C22.2567 19.6286 22.1389 19.6605 21.9969 19.6605ZM22.0821 19.4173C22.1744 19.4173 22.2567 19.396 22.3289 19.3533C22.4011 19.3119 22.4574 19.2545 22.4976 19.1811C22.539 19.1077 22.5597 19.0249 22.5597 18.9325V18.7035C22.5384 18.7189 22.5041 18.7337 22.4568 18.7479C22.4106 18.7621 22.3597 18.7739 22.3041 18.7834C22.2484 18.7929 22.1981 18.8005 22.1531 18.8065C22.0028 18.8254 21.8951 18.8603 21.83 18.9112C21.7661 18.9609 21.7341 19.0296 21.7341 19.1172C21.7341 19.2095 21.7673 19.2823 21.8335 19.3356C21.901 19.39 21.9839 19.4173 22.0821 19.4173ZM24.1356 19.6605C23.9663 19.6605 23.8183 19.6203 23.6917 19.5398C23.5662 19.4593 23.4685 19.348 23.3987 19.206C23.33 19.0651 23.2957 18.9041 23.2957 18.723C23.2957 18.5419 23.33 18.3809 23.3987 18.2401C23.4685 18.098 23.5662 17.9867 23.6917 17.9062C23.8183 17.8246 23.9663 17.7837 24.1356 17.7837C24.3415 17.7837 24.5132 17.8417 24.6505 17.9577C24.7878 18.0737 24.8659 18.227 24.8849 18.4176H24.5617C24.5463 18.3194 24.5013 18.2341 24.4268 18.1619C24.3534 18.0885 24.2581 18.0518 24.1409 18.0518C24.0438 18.0518 23.9568 18.0797 23.8799 18.1353C23.8041 18.1909 23.7443 18.2685 23.7006 18.3679C23.6579 18.4673 23.6366 18.5839 23.6366 18.7177C23.6366 18.8514 23.6573 18.9686 23.6988 19.0692C23.7414 19.1699 23.8006 19.248 23.8763 19.3036C23.9521 19.3593 24.0403 19.3871 24.1409 19.3871C24.2403 19.3871 24.3309 19.3563 24.4126 19.2947C24.4942 19.2332 24.5445 19.142 24.5635 19.0213H24.8866C24.8677 19.2119 24.7907 19.3658 24.6558 19.483C24.5209 19.6013 24.3474 19.6605 24.1356 19.6605Z" fill="white"/>
<path d="M42.3161 5V1.36364H43.0724V2.73082H43.0955C43.1287 2.65743 43.1766 2.58286 43.2393 2.5071C43.3033 2.43016 43.3861 2.36624 43.4879 2.31534C43.5909 2.26326 43.7188 2.23722 43.8714 2.23722C44.0703 2.23722 44.2538 2.2893 44.4219 2.39347C44.59 2.49645 44.7243 2.65211 44.8249 2.86044C44.9255 3.06759 44.9759 3.32741 44.9759 3.63991C44.9759 3.94413 44.9267 4.20099 44.8285 4.41051C44.7314 4.61884 44.5988 4.77687 44.4308 4.88459C44.2638 4.99112 44.0768 5.04439 43.8697 5.04439C43.7229 5.04439 43.598 5.02012 43.495 4.97159C43.3932 4.92306 43.3098 4.8621 43.2447 4.78871C43.1796 4.71413 43.1299 4.63897 43.0955 4.56321H43.0618V5H42.3161ZM43.0565 3.63636C43.0565 3.79853 43.079 3.93999 43.1239 4.06072C43.1689 4.18146 43.234 4.27557 43.3192 4.34304C43.4045 4.40933 43.508 4.44247 43.63 4.44247C43.7531 4.44247 43.8572 4.40874 43.9425 4.34126C44.0277 4.27261 44.0922 4.17791 44.136 4.05717C44.181 3.93525 44.2035 3.79498 44.2035 3.63636C44.2035 3.47893 44.1816 3.34044 44.1378 3.22088C44.094 3.10133 44.0295 3.00781 43.9442 2.94034C43.859 2.87287 43.7543 2.83913 43.63 2.83913C43.5069 2.83913 43.4027 2.87169 43.3175 2.93679C43.2334 3.00189 43.1689 3.09422 43.1239 3.21378C43.079 3.33333 43.0565 3.4742 43.0565 3.63636ZM46.1766 5.66051C46.0073 5.66051 45.8593 5.62027 45.7327 5.53977C45.6072 5.45928 45.5096 5.34801 45.4397 5.20597C45.3711 5.0651 45.3367 4.90412 45.3367 4.72301C45.3367 4.5419 45.3711 4.38092 45.4397 4.24006C45.5096 4.09801 45.6072 3.98674 45.7327 3.90625C45.8593 3.82457 46.0073 3.78374 46.1766 3.78374C46.3825 3.78374 46.5542 3.84174 46.6915 3.95774C46.8288 4.07375 46.9069 4.22704 46.9259 4.41761H46.6027C46.5873 4.31937 46.5423 4.23414 46.4678 4.16193C46.3944 4.08854 46.2991 4.05185 46.1819 4.05185C46.0848 4.05185 45.9978 4.07966 45.9209 4.1353C45.8451 4.19093 45.7854 4.26847 45.7416 4.3679C45.699 4.46733 45.6776 4.58393 45.6776 4.71768C45.6776 4.85144 45.6984 4.96863 45.7398 5.06925C45.7824 5.16986 45.8416 5.24799 45.9173 5.30362C45.9931 5.35926 46.0813 5.38707 46.1819 5.38707C46.2813 5.38707 46.3719 5.3563 46.4536 5.29474C46.5352 5.23319 46.5856 5.14205 46.6045 5.02131H46.9276C46.9087 5.21188 46.8318 5.36577 46.6968 5.48295C46.5619 5.60133 46.3885 5.66051 46.1766 5.66051Z" fill="white"/>
<path d="M42.3161 25V21.3636H43.0724V22.7308H43.0955C43.1287 22.6574 43.1766 22.5829 43.2393 22.5071C43.3033 22.4302 43.3861 22.3662 43.4879 22.3153C43.5909 22.2633 43.7188 22.2372 43.8714 22.2372C44.0703 22.2372 44.2538 22.2893 44.4219 22.3935C44.59 22.4964 44.7243 22.6521 44.8249 22.8604C44.9255 23.0676 44.9759 23.3274 44.9759 23.6399C44.9759 23.9441 44.9267 24.201 44.8285 24.4105C44.7314 24.6188 44.5988 24.7769 44.4308 24.8846C44.2638 24.9911 44.0768 25.0444 43.8697 25.0444C43.7229 25.0444 43.598 25.0201 43.495 24.9716C43.3932 24.9231 43.3098 24.8621 43.2447 24.7887C43.1796 24.7141 43.1299 24.639 43.0955 24.5632H43.0618V25H42.3161ZM43.0565 23.6364C43.0565 23.7985 43.079 23.94 43.1239 24.0607C43.1689 24.1815 43.234 24.2756 43.3192 24.343C43.4045 24.4093 43.508 24.4425 43.63 24.4425C43.7531 24.4425 43.8572 24.4087 43.9425 24.3413C44.0277 24.2726 44.0922 24.1779 44.136 24.0572C44.181 23.9353 44.2035 23.795 44.2035 23.6364C44.2035 23.4789 44.1816 23.3404 44.1378 23.2209C44.094 23.1013 44.0295 23.0078 43.9442 22.9403C43.859 22.8729 43.7543 22.8391 43.63 22.8391C43.5069 22.8391 43.4027 22.8717 43.3175 22.9368C43.2334 23.0019 43.1689 23.0942 43.1239 23.2138C43.079 23.3333 43.0565 23.4742 43.0565 23.6364ZM46.9685 25.625H46.6418V25.277H46.6205C46.5956 25.3385 46.5601 25.3989 46.5139 25.4581C46.4678 25.5173 46.408 25.5658 46.3346 25.6037C46.2624 25.6416 46.1748 25.6605 46.0718 25.6605C45.931 25.6605 45.8055 25.622 45.6954 25.5451C45.5865 25.4693 45.5001 25.361 45.4362 25.2202C45.3734 25.0805 45.3421 24.9148 45.3421 24.723C45.3421 24.5277 45.374 24.3602 45.4379 24.2205C45.5019 24.0797 45.5889 23.9719 45.699 23.8974C45.809 23.8216 45.9333 23.7837 46.0718 23.7837C46.1713 23.7837 46.2571 23.8021 46.3293 23.8388C46.4027 23.8755 46.463 23.9234 46.5104 23.9826C46.5589 24.0406 46.5956 24.1027 46.6205 24.169H46.6347V23.2031H46.9685V25.625ZM46.6418 24.7177C46.6418 24.5271 46.5998 24.3697 46.5157 24.2454C46.4317 24.1211 46.3139 24.0589 46.1624 24.0589C46.0097 24.0589 45.8913 24.1223 45.8073 24.2489C45.7244 24.3744 45.683 24.5307 45.683 24.7177C45.683 24.8455 45.7019 24.9592 45.7398 25.0586C45.7777 25.1592 45.8321 25.2379 45.9031 25.2947C45.9753 25.3527 46.0618 25.3817 46.1624 25.3817C46.2618 25.3817 46.347 25.3533 46.4181 25.2965C46.4903 25.2397 46.5453 25.1616 46.5832 25.0621C46.6222 24.9627 46.6418 24.8479 46.6418 24.7177Z" fill="white"/>
<path d="M42.3161 46V42.3636H43.0724V43.7308H43.0955C43.1287 43.6574 43.1766 43.5829 43.2393 43.5071C43.3033 43.4302 43.3861 43.3662 43.4879 43.3153C43.5909 43.2633 43.7188 43.2372 43.8714 43.2372C44.0703 43.2372 44.2538 43.2893 44.4219 43.3935C44.59 43.4964 44.7243 43.6521 44.8249 43.8604C44.9255 44.0676 44.9759 44.3274 44.9759 44.6399C44.9759 44.9441 44.9267 45.201 44.8285 45.4105C44.7314 45.6188 44.5988 45.7769 44.4308 45.8846C44.2638 45.9911 44.0768 46.0444 43.8697 46.0444C43.7229 46.0444 43.598 46.0201 43.495 45.9716C43.3932 45.9231 43.3098 45.8621 43.2447 45.7887C43.1796 45.7141 43.1299 45.639 43.0955 45.5632H43.0618V46H42.3161ZM43.0565 44.6364C43.0565 44.7985 43.079 44.94 43.1239 45.0607C43.1689 45.1815 43.234 45.2756 43.3192 45.343C43.4045 45.4093 43.508 45.4425 43.63 45.4425C43.7531 45.4425 43.8572 45.4087 43.9425 45.3413C44.0277 45.2726 44.0922 45.1779 44.136 45.0572C44.181 44.9353 44.2035 44.795 44.2035 44.6364C44.2035 44.4789 44.1816 44.3404 44.1378 44.2209C44.094 44.1013 44.0295 44.0078 43.9442 43.9403C43.859 43.8729 43.7543 43.8391 43.63 43.8391C43.5069 43.8391 43.4027 43.8717 43.3175 43.9368C43.2334 44.0019 43.1689 44.0942 43.1239 44.2138C43.079 44.3333 43.0565 44.4742 43.0565 44.6364ZM46.1926 46.6605C46.0186 46.6605 45.867 46.6209 45.738 46.5415C45.6102 46.4634 45.5113 46.3539 45.4415 46.2131C45.3717 46.0722 45.3367 45.9089 45.3367 45.723C45.3367 45.5395 45.3717 45.3774 45.4415 45.2365C45.5125 45.0945 45.6102 44.9838 45.7345 44.9045C45.8599 44.824 46.0044 44.7837 46.1677 44.7837C46.318 44.7837 46.4542 44.8192 46.5761 44.8903C46.698 44.9601 46.7951 45.0619 46.8673 45.1957C46.9395 45.3294 46.9756 45.4916 46.9756 45.6822V45.7958H45.4841V45.5774H46.6578C46.6578 45.4756 46.637 45.3851 46.5956 45.3058C46.5542 45.2253 46.4968 45.1619 46.4234 45.1158C46.35 45.0696 46.2671 45.0465 46.1748 45.0465C46.0777 45.0465 45.9913 45.072 45.9156 45.1229C45.8398 45.1738 45.78 45.2418 45.7362 45.3271C45.6936 45.4123 45.6723 45.5064 45.6723 45.6094V45.794C45.6711 45.9728 45.7179 46.1184 45.8126 46.2308C45.9085 46.3433 46.0375 46.3995 46.1997 46.3995C46.2754 46.3995 46.3423 46.3871 46.4003 46.3622C46.4595 46.3374 46.5086 46.3054 46.5477 46.2663C46.5867 46.2285 46.6151 46.1882 46.6329 46.1456L46.9401 46.1829C46.901 46.3178 46.817 46.4309 46.6879 46.522C46.5589 46.6143 46.3938 46.6605 46.1926 46.6605Z" fill="white"/>
<path d="M18.8398 31L18.0977 28.2727H18.8629L19.2855 30.1051H19.3104L19.7507 28.2727H20.5018L20.9492 30.0945H20.9723L21.3878 28.2727H22.1513L21.4109 31H20.6101L20.1413 29.2848H20.1076L19.6388 31H18.8398ZM22.5317 31.625V29.2031H22.8655V30.169H22.8797C22.9069 30.1027 22.9442 30.0406 22.9916 29.9826C23.0389 29.9234 23.0987 29.8755 23.1709 29.8388C23.2443 29.8021 23.3325 29.7837 23.4355 29.7837C23.5716 29.7837 23.6941 29.8216 23.803 29.8974C23.9119 29.9719 23.9983 30.0797 24.0622 30.2205C24.1262 30.3602 24.1581 30.5277 24.1581 30.723C24.1581 30.9148 24.1267 31.0805 24.064 31.2202C24.0025 31.361 23.9172 31.4693 23.8083 31.5451C23.7006 31.622 23.5763 31.6605 23.4355 31.6605C23.336 31.6605 23.2496 31.6422 23.1762 31.6055C23.1028 31.5688 23.0419 31.5214 22.9933 31.4634C22.9448 31.4054 22.9069 31.3433 22.8797 31.277H22.8655V31.625H22.5317ZM22.8602 30.7177C22.8602 30.913 22.9022 31.0722 22.9862 31.1953C23.0715 31.3196 23.1887 31.3817 23.3378 31.3817C23.4396 31.3817 23.526 31.3527 23.597 31.2947C23.6681 31.2367 23.7225 31.1574 23.7604 31.0568C23.7983 30.9562 23.8172 30.8432 23.8172 30.7177C23.8172 30.5271 23.7752 30.3697 23.6911 30.2454C23.6083 30.1211 23.4905 30.0589 23.3378 30.0589C23.2384 30.0589 23.1526 30.0868 23.0803 30.1424C23.0093 30.198 22.9549 30.2756 22.917 30.375C22.8791 30.4744 22.8602 30.5887 22.8602 30.7177ZM25.3211 31.6605C25.1518 31.6605 25.0039 31.6203 24.8772 31.5398C24.7517 31.4593 24.6541 31.348 24.5843 31.206C24.5156 31.0651 24.4813 30.9041 24.4813 30.723C24.4813 30.5419 24.5156 30.3809 24.5843 30.2401C24.6541 30.098 24.7517 29.9867 24.8772 29.9062C25.0039 29.8246 25.1518 29.7837 25.3211 29.7837C25.5271 29.7837 25.6987 29.8417 25.836 29.9577C25.9733 30.0737 26.0515 30.227 26.0704 30.4176H25.7472C25.7319 30.3194 25.6869 30.2341 25.6123 30.1619C25.5389 30.0885 25.4436 30.0518 25.3264 30.0518C25.2294 30.0518 25.1424 30.0797 25.0654 30.1353C24.9897 30.1909 24.9299 30.2685 24.8861 30.3679C24.8435 30.4673 24.8222 30.5839 24.8222 30.7177C24.8222 30.8514 24.8429 30.9686 24.8843 31.0692C24.9269 31.1699 24.9861 31.248 25.0619 31.3036C25.1376 31.3593 25.2258 31.3871 25.3264 31.3871C25.4259 31.3871 25.5164 31.3563 25.5981 31.2947C25.6798 31.2332 25.7301 31.142 25.749 31.0213H26.0722C26.0532 31.2119 25.9763 31.3658 25.8414 31.483C25.7064 31.6013 25.533 31.6605 25.3211 31.6605Z" fill="white"/>
<path d="M35.3068 27.0444C35.0997 27.0444 34.9121 26.9911 34.744 26.8846C34.5771 26.7769 34.4445 26.6188 34.3462 26.4105C34.2492 26.201 34.2006 25.9441 34.2006 25.6399C34.2006 25.3274 34.2509 25.0676 34.3516 24.8604C34.4522 24.6521 34.5859 24.4964 34.7528 24.3935C34.9209 24.2893 35.105 24.2372 35.305 24.2372C35.4577 24.2372 35.585 24.2633 35.6868 24.3153C35.7898 24.3662 35.8726 24.4302 35.9354 24.5071C35.9993 24.5829 36.0478 24.6574 36.081 24.7308H36.104V23.3636H36.8587V27H36.1129V26.5632H36.081C36.0455 26.639 35.9951 26.7141 35.93 26.7887C35.8661 26.8621 35.7827 26.9231 35.6797 26.9716C35.5779 27.0201 35.4536 27.0444 35.3068 27.0444ZM35.5465 26.4425C35.6684 26.4425 35.7714 26.4093 35.8555 26.343C35.9407 26.2756 36.0058 26.1815 36.0508 26.0607C36.0969 25.94 36.12 25.7985 36.12 25.6364C36.12 25.4742 36.0975 25.3333 36.0526 25.2138C36.0076 25.0942 35.9425 25.0019 35.8572 24.9368C35.772 24.8717 35.6684 24.8391 35.5465 24.8391C35.4222 24.8391 35.3175 24.8729 35.2322 24.9403C35.147 25.0078 35.0825 25.1013 35.0387 25.2209C34.9949 25.3404 34.973 25.4789 34.973 25.6364C34.973 25.795 34.9949 25.9353 35.0387 26.0572C35.0837 26.1779 35.1482 26.2726 35.2322 26.3413C35.3175 26.4087 35.4222 26.4425 35.5465 26.4425Z" fill="white"/>
<path d="M35.5447 46.0533C35.2642 46.0533 35.0227 45.9964 34.8203 45.8828C34.6191 45.768 34.464 45.6058 34.3551 45.3963C34.2462 45.1856 34.1918 44.9364 34.1918 44.6488C34.1918 44.3683 34.2462 44.122 34.3551 43.9102C34.464 43.6983 34.6173 43.5331 34.815 43.4148C35.0138 43.2964 35.247 43.2372 35.5146 43.2372C35.6945 43.2372 35.862 43.2662 36.017 43.3242C36.1733 43.381 36.3094 43.4669 36.4254 43.5817C36.5426 43.6965 36.6338 43.8409 36.6989 44.0149C36.764 44.1877 36.7965 44.3902 36.7965 44.6222V44.8299H34.4936V44.3612H36.0845C36.0845 44.2522 36.0608 44.1558 36.0135 44.0717C35.9661 43.9877 35.9004 43.922 35.8164 43.8746C35.7335 43.8261 35.6371 43.8018 35.527 43.8018C35.4122 43.8018 35.3104 43.8285 35.2216 43.8817C35.134 43.9338 35.0653 44.0043 35.0156 44.093C34.9659 44.1806 34.9405 44.2783 34.9393 44.386V44.8317C34.9393 44.9666 34.9641 45.0832 35.0138 45.1815C35.0647 45.2797 35.1364 45.3555 35.2287 45.4087C35.321 45.462 35.4305 45.4886 35.5572 45.4886C35.6412 45.4886 35.7182 45.4768 35.788 45.4531C35.8578 45.4295 35.9176 45.3939 35.9673 45.3466C36.017 45.2992 36.0549 45.2412 36.081 45.1726L36.7805 45.2188C36.745 45.3868 36.6722 45.5336 36.5621 45.6591C36.4532 45.7834 36.3124 45.8804 36.1396 45.9503C35.9679 46.0189 35.7696 46.0533 35.5447 46.0533Z" fill="white"/>
<path d="M69.7685 24.2727V24.8409H68.0852V24.2727H69.7685ZM68.4705 27V24.0756C68.4705 23.878 68.509 23.714 68.5859 23.5838C68.6641 23.4536 68.7706 23.3559 68.9055 23.2908C69.0405 23.2257 69.1938 23.1932 69.3654 23.1932C69.4814 23.1932 69.5874 23.2021 69.6832 23.2198C69.7803 23.2376 69.8525 23.2536 69.8999 23.2678L69.7649 23.8359C69.7353 23.8265 69.6986 23.8176 69.6548 23.8093C69.6122 23.801 69.5684 23.7969 69.5234 23.7969C69.4122 23.7969 69.3346 23.8229 69.2908 23.875C69.247 23.9259 69.2251 23.9975 69.2251 24.0898V27H68.4705Z" fill="white"/>
</svg>
