<svg width="79" height="54" viewBox="0 0 79 54" fill="none" xmlns="http://www.w3.org/2000/svg">
<path d="M46.3161 6V2.36364H47.0724V3.73082H47.0955C47.1287 3.65743 47.1766 3.58286 47.2393 3.5071C47.3033 3.43016 47.3861 3.36624 47.4879 3.31534C47.5909 3.26326 47.7188 3.23722 47.8714 3.23722C48.0703 3.23722 48.2538 3.2893 48.4219 3.39347C48.59 3.49645 48.7243 3.65211 48.8249 3.86044C48.9255 4.06759 48.9759 4.32741 48.9759 4.63991C48.9759 4.94413 48.9267 5.20099 48.8285 5.41051C48.7314 5.61884 48.5988 5.77687 48.4308 5.88459C48.2638 5.99112 48.0768 6.04439 47.8697 6.04439C47.7229 6.04439 47.598 6.02012 47.495 5.97159C47.3932 5.92306 47.3098 5.8621 47.2447 5.78871C47.1796 5.71413 47.1299 5.63897 47.0955 5.56321H47.0618V6H46.3161ZM47.0565 4.63636C47.0565 4.79853 47.079 4.93999 47.1239 5.06072C47.1689 5.18146 47.234 5.27557 47.3192 5.34304C47.4045 5.40933 47.508 5.44247 47.63 5.44247C47.7531 5.44247 47.8572 5.40874 47.9425 5.34126C48.0277 5.27261 48.0922 5.17791 48.136 5.05717C48.181 4.93525 48.2035 4.79498 48.2035 4.63636C48.2035 4.47893 48.1816 4.34044 48.1378 4.22088C48.094 4.10133 48.0295 4.00781 47.9442 3.94034C47.859 3.87287 47.7543 3.83913 47.63 3.83913C47.5069 3.83913 47.4027 3.87169 47.3175 3.93679C47.2334 4.00189 47.1689 4.09422 47.1239 4.21378C47.079 4.33333 47.0565 4.4742 47.0565 4.63636ZM50.1766 6.66051C50.0073 6.66051 49.8593 6.62027 49.7327 6.53977C49.6072 6.45928 49.5096 6.34801 49.4397 6.20597C49.3711 6.0651 49.3367 5.90412 49.3367 5.72301C49.3367 5.5419 49.3711 5.38092 49.4397 5.24006C49.5096 5.09801 49.6072 4.98674 49.7327 4.90625C49.8593 4.82457 50.0073 4.78374 50.1766 4.78374C50.3825 4.78374 50.5542 4.84174 50.6915 4.95774C50.8288 5.07375 50.9069 5.22704 50.9259 5.41761H50.6027C50.5873 5.31937 50.5423 5.23414 50.4678 5.16193C50.3944 5.08854 50.2991 5.05185 50.1819 5.05185C50.0848 5.05185 49.9978 5.07966 49.9209 5.1353C49.8451 5.19093 49.7854 5.26847 49.7416 5.3679C49.699 5.46733 49.6776 5.58393 49.6776 5.71768C49.6776 5.85144 49.6984 5.96863 49.7398 6.06925C49.7824 6.16986 49.8416 6.24799 49.9173 6.30362C49.9931 6.35926 50.0813 6.38707 50.1819 6.38707C50.2813 6.38707 50.3719 6.3563 50.4536 6.29474C50.5352 6.23319 50.5856 6.14205 50.6045 6.02131H50.9276C50.9087 6.21188 50.8318 6.36577 50.6968 6.48295C50.5619 6.60133 50.3885 6.66051 50.1766 6.66051Z" fill="white"/>
<path d="M46.3161 25V21.3636H47.0724V22.7308H47.0955C47.1287 22.6574 47.1766 22.5829 47.2393 22.5071C47.3033 22.4302 47.3861 22.3662 47.4879 22.3153C47.5909 22.2633 47.7188 22.2372 47.8714 22.2372C48.0703 22.2372 48.2538 22.2893 48.4219 22.3935C48.59 22.4964 48.7243 22.6521 48.8249 22.8604C48.9255 23.0676 48.9759 23.3274 48.9759 23.6399C48.9759 23.9441 48.9267 24.201 48.8285 24.4105C48.7314 24.6188 48.5988 24.7769 48.4308 24.8846C48.2638 24.9911 48.0768 25.0444 47.8697 25.0444C47.7229 25.0444 47.598 25.0201 47.495 24.9716C47.3932 24.9231 47.3098 24.8621 47.2447 24.7887C47.1796 24.7141 47.1299 24.639 47.0955 24.5632H47.0618V25H46.3161ZM47.0565 23.6364C47.0565 23.7985 47.079 23.94 47.1239 24.0607C47.1689 24.1815 47.234 24.2756 47.3192 24.343C47.4045 24.4093 47.508 24.4425 47.63 24.4425C47.7531 24.4425 47.8572 24.4087 47.9425 24.3413C48.0277 24.2726 48.0922 24.1779 48.136 24.0572C48.181 23.9353 48.2035 23.795 48.2035 23.6364C48.2035 23.4789 48.1816 23.3404 48.1378 23.2209C48.094 23.1013 48.0295 23.0078 47.9442 22.9403C47.859 22.8729 47.7543 22.8391 47.63 22.8391C47.5069 22.8391 47.4027 22.8717 47.3175 22.9368C47.2334 23.0019 47.1689 23.0942 47.1239 23.2138C47.079 23.3333 47.0565 23.4742 47.0565 23.6364ZM50.9685 25.625H50.6418V25.277H50.6205C50.5956 25.3385 50.5601 25.3989 50.5139 25.4581C50.4678 25.5173 50.408 25.5658 50.3346 25.6037C50.2624 25.6416 50.1748 25.6605 50.0718 25.6605C49.931 25.6605 49.8055 25.622 49.6954 25.5451C49.5865 25.4693 49.5001 25.361 49.4362 25.2202C49.3734 25.0805 49.3421 24.9148 49.3421 24.723C49.3421 24.5277 49.374 24.3602 49.4379 24.2205C49.5019 24.0797 49.5889 23.9719 49.699 23.8974C49.809 23.8216 49.9333 23.7837 50.0718 23.7837C50.1713 23.7837 50.2571 23.8021 50.3293 23.8388C50.4027 23.8755 50.463 23.9234 50.5104 23.9826C50.5589 24.0406 50.5956 24.1027 50.6205 24.169H50.6347V23.2031H50.9685V25.625ZM50.6418 24.7177C50.6418 24.5271 50.5998 24.3697 50.5157 24.2454C50.4317 24.1211 50.3139 24.0589 50.1624 24.0589C50.0097 24.0589 49.8913 24.1223 49.8073 24.2489C49.7244 24.3744 49.683 24.5307 49.683 24.7177C49.683 24.8455 49.7019 24.9592 49.7398 25.0586C49.7777 25.1592 49.8321 25.2379 49.9031 25.2947C49.9753 25.3527 50.0618 25.3817 50.1624 25.3817C50.2618 25.3817 50.347 25.3533 50.4181 25.2965C50.4903 25.2397 50.5453 25.1616 50.5832 25.0621C50.6222 24.9627 50.6418 24.8479 50.6418 24.7177Z" fill="white"/>
<path d="M46.3161 46V42.3636H47.0724V43.7308H47.0955C47.1287 43.6574 47.1766 43.5829 47.2393 43.5071C47.3033 43.4302 47.3861 43.3662 47.4879 43.3153C47.5909 43.2633 47.7188 43.2372 47.8714 43.2372C48.0703 43.2372 48.2538 43.2893 48.4219 43.3935C48.59 43.4964 48.7243 43.6521 48.8249 43.8604C48.9255 44.0676 48.9759 44.3274 48.9759 44.6399C48.9759 44.9441 48.9267 45.201 48.8285 45.4105C48.7314 45.6188 48.5988 45.7769 48.4308 45.8846C48.2638 45.9911 48.0768 46.0444 47.8697 46.0444C47.7229 46.0444 47.598 46.0201 47.495 45.9716C47.3932 45.9231 47.3098 45.8621 47.2447 45.7887C47.1796 45.7141 47.1299 45.639 47.0955 45.5632H47.0618V46H46.3161ZM47.0565 44.6364C47.0565 44.7985 47.079 44.94 47.1239 45.0607C47.1689 45.1815 47.234 45.2756 47.3192 45.343C47.4045 45.4093 47.508 45.4425 47.63 45.4425C47.7531 45.4425 47.8572 45.4087 47.9425 45.3413C48.0277 45.2726 48.0922 45.1779 48.136 45.0572C48.181 44.9353 48.2035 44.795 48.2035 44.6364C48.2035 44.4789 48.1816 44.3404 48.1378 44.2209C48.094 44.1013 48.0295 44.0078 47.9442 43.9403C47.859 43.8729 47.7543 43.8391 47.63 43.8391C47.5069 43.8391 47.4027 43.8717 47.3175 43.9368C47.2334 44.0019 47.1689 44.0942 47.1239 44.2138C47.079 44.3333 47.0565 44.4742 47.0565 44.6364ZM50.1926 46.6605C50.0186 46.6605 49.867 46.6209 49.738 46.5415C49.6102 46.4634 49.5113 46.3539 49.4415 46.2131C49.3717 46.0722 49.3367 45.9089 49.3367 45.723C49.3367 45.5395 49.3717 45.3774 49.4415 45.2365C49.5125 45.0945 49.6102 44.9838 49.7345 44.9045C49.8599 44.824 50.0044 44.7837 50.1677 44.7837C50.318 44.7837 50.4542 44.8192 50.5761 44.8903C50.698 44.9601 50.7951 45.0619 50.8673 45.1957C50.9395 45.3294 50.9756 45.4916 50.9756 45.6822V45.7958H49.4841V45.5774H50.6578C50.6578 45.4756 50.637 45.3851 50.5956 45.3058C50.5542 45.2253 50.4968 45.1619 50.4234 45.1158C50.35 45.0696 50.2671 45.0465 50.1748 45.0465C50.0777 45.0465 49.9913 45.072 49.9156 45.1229C49.8398 45.1738 49.78 45.2418 49.7362 45.3271C49.6936 45.4123 49.6723 45.5064 49.6723 45.6094V45.794C49.6711 45.9728 49.7179 46.1184 49.8126 46.2308C49.9085 46.3433 50.0375 46.3995 50.1997 46.3995C50.2754 46.3995 50.3423 46.3871 50.4003 46.3622C50.4595 46.3374 50.5086 46.3054 50.5477 46.2663C50.5867 46.2285 50.6151 46.1882 50.6329 46.1456L50.9401 46.1829C50.901 46.3178 50.817 46.4309 50.6879 46.522C50.5589 46.6143 50.3938 46.6605 50.1926 46.6605Z" fill="white"/>
<circle cx="8" cy="21" r="5" fill="#FF0000"/>
<circle cx="8" cy="40" r="5" fill="#FF0000"/>
<circle cx="8" cy="21" r="5" fill="white"/>
<circle cx="8" cy="40" r="5" fill="white"/>
<circle cx="74" cy="29" r="5" fill="white"/>
<circle cx="41" cy="9" r="5" fill="white"/>
<circle cx="41" cy="29" r="5" fill="white"/>
<circle cx="41" cy="49" r="5" fill="white"/>
<line x1="40.8684" y1="49.4824" x2="7.86844" y2="40.4824" stroke="#001AFF"/>
<line x1="40.6765" y1="49.3813" x2="7.67651" y2="21.3813" stroke="#001AFF"/>
<path d="M1.07955 17.0515C0.90554 17.0515 0.750474 17.0213 0.614347 16.9609C0.47822 16.8994 0.370502 16.8088 0.291193 16.6893C0.213068 16.5685 0.174006 16.4182 0.174006 16.2383C0.174006 16.0868 0.201823 15.9595 0.257457 15.8565C0.313092 15.7536 0.388849 15.6707 0.48473 15.608C0.580611 15.5452 0.689512 15.4979 0.811435 15.4659C0.934541 15.4339 1.06357 15.4115 1.19851 15.3984C1.35713 15.3819 1.48497 15.3665 1.58203 15.3523C1.6791 15.3369 1.74953 15.3144 1.79332 15.2848C1.83712 15.2552 1.85902 15.2114 1.85902 15.1534V15.1428C1.85902 15.0303 1.82351 14.9433 1.75249 14.8817C1.68265 14.8202 1.58321 14.7894 1.45419 14.7894C1.31806 14.7894 1.20975 14.8196 1.12926 14.88C1.04877 14.9392 0.995502 15.0137 0.96946 15.1037L0.269886 15.0469C0.305398 14.8812 0.375237 14.7379 0.479403 14.6172C0.58357 14.4953 0.717921 14.4018 0.882457 14.3366C1.04818 14.2704 1.23994 14.2372 1.45774 14.2372C1.60926 14.2372 1.75426 14.255 1.89276 14.2905C2.03243 14.326 2.15613 14.381 2.26385 14.4556C2.37275 14.5302 2.45857 14.6261 2.52131 14.7433C2.58404 14.8593 2.61541 14.9983 2.61541 15.1605V17H1.89808V16.6218H1.87678C1.83298 16.707 1.77438 16.7822 1.70099 16.8473C1.6276 16.9112 1.53942 16.9615 1.43643 16.9982C1.33345 17.0337 1.21449 17.0515 1.07955 17.0515ZM1.29616 16.5295C1.40743 16.5295 1.50568 16.5076 1.59091 16.4638C1.67614 16.4188 1.74302 16.3584 1.79155 16.2827C1.84008 16.2069 1.86435 16.1211 1.86435 16.0252V15.7358C1.84067 15.7512 1.80812 15.7654 1.76669 15.7784C1.72644 15.7902 1.68087 15.8015 1.62997 15.8121C1.57907 15.8216 1.52817 15.8305 1.47727 15.8388C1.42637 15.8459 1.38021 15.8524 1.33878 15.8583C1.25 15.8713 1.17247 15.892 1.10618 15.9205C1.03989 15.9489 0.9884 15.9873 0.951705 16.0359C0.91501 16.0832 0.896662 16.1424 0.896662 16.2134C0.896662 16.3164 0.933949 16.3951 1.00852 16.4496C1.08428 16.5028 1.18016 16.5295 1.29616 16.5295Z" fill="white"/>
<path d="M0.316051 37V33.3636H1.07244V34.7308H1.09553C1.12867 34.6574 1.17661 34.5829 1.23935 34.5071C1.30327 34.4302 1.38613 34.3662 1.48793 34.3153C1.59091 34.2633 1.71875 34.2372 1.87145 34.2372C2.07031 34.2372 2.25379 34.2893 2.42188 34.3935C2.58996 34.4964 2.72431 34.6521 2.82493 34.8604C2.92554 35.0676 2.97585 35.3274 2.97585 35.6399C2.97585 35.9441 2.92673 36.201 2.82848 36.4105C2.73142 36.6188 2.59884 36.7769 2.43075 36.8846C2.26385 36.9911 2.07682 37.0444 1.86967 37.0444C1.72289 37.0444 1.59801 37.0201 1.49503 36.9716C1.39323 36.9231 1.30978 36.8621 1.24467 36.7887C1.17957 36.7141 1.12985 36.639 1.09553 36.5632H1.06179V37H0.316051ZM1.05646 35.6364C1.05646 35.7985 1.07895 35.94 1.12393 36.0607C1.16892 36.1815 1.23402 36.2756 1.31925 36.343C1.40447 36.4093 1.50805 36.4425 1.62997 36.4425C1.75308 36.4425 1.85724 36.4087 1.94247 36.3413C2.0277 36.2726 2.09221 36.1779 2.13601 36.0572C2.18099 35.9353 2.20348 35.795 2.20348 35.6364C2.20348 35.4789 2.18158 35.3404 2.13778 35.2209C2.09399 35.1013 2.02947 35.0078 1.94425 34.9403C1.85902 34.8729 1.75426 34.8391 1.62997 34.8391C1.50687 34.8391 1.4027 34.8717 1.31747 34.9368C1.23343 35.0019 1.16892 35.0942 1.12393 35.2138C1.07895 35.3333 1.05646 35.4742 1.05646 35.6364Z" fill="white"/>
<path d="M35.5341 5.05327C35.2547 5.05327 35.0144 4.99408 34.8132 4.87571C34.6132 4.75616 34.4593 4.59044 34.3516 4.37855C34.245 4.16667 34.1918 3.92282 34.1918 3.64702C34.1918 3.36766 34.2456 3.12263 34.3533 2.91193C34.4622 2.70005 34.6167 2.53492 34.8168 2.41655C35.0168 2.29699 35.2547 2.23722 35.5305 2.23722C35.7685 2.23722 35.9768 2.28042 36.1555 2.36683C36.3343 2.45324 36.4757 2.57457 36.5799 2.73082C36.6841 2.88707 36.7415 3.07055 36.7521 3.28125H36.0384C36.0182 3.14512 35.965 3.03563 35.8786 2.95277C35.7933 2.86873 35.6815 2.8267 35.543 2.8267C35.4258 2.8267 35.3234 2.85866 35.2358 2.92259C35.1494 2.98532 35.0819 3.07706 35.0334 3.1978C34.9848 3.31854 34.9606 3.46473 34.9606 3.63636C34.9606 3.81037 34.9843 3.95833 35.0316 4.08026C35.0801 4.20218 35.1482 4.2951 35.2358 4.35902C35.3234 4.42294 35.4258 4.4549 35.543 4.4549C35.6294 4.4549 35.7069 4.43714 35.7756 4.40163C35.8454 4.36612 35.9028 4.31463 35.9478 4.24716C35.994 4.1785 36.0241 4.09624 36.0384 4.00036H36.7521C36.7403 4.20869 36.6835 4.39216 36.5817 4.55078C36.4811 4.70821 36.342 4.83132 36.1644 4.9201C35.9869 5.00888 35.7768 5.05327 35.5341 5.05327Z" fill="white"/>
<path d="M35.3068 25.0444C35.0997 25.0444 34.9121 24.9911 34.744 24.8846C34.5771 24.7769 34.4445 24.6188 34.3462 24.4105C34.2492 24.201 34.2006 23.9441 34.2006 23.6399C34.2006 23.3274 34.2509 23.0676 34.3516 22.8604C34.4522 22.6521 34.5859 22.4964 34.7528 22.3935C34.9209 22.2893 35.105 22.2372 35.305 22.2372C35.4577 22.2372 35.585 22.2633 35.6868 22.3153C35.7898 22.3662 35.8726 22.4302 35.9354 22.5071C35.9993 22.5829 36.0478 22.6574 36.081 22.7308H36.104V21.3636H36.8587V25H36.1129V24.5632H36.081C36.0455 24.639 35.9951 24.7141 35.93 24.7887C35.8661 24.8621 35.7827 24.9231 35.6797 24.9716C35.5779 25.0201 35.4536 25.0444 35.3068 25.0444ZM35.5465 24.4425C35.6684 24.4425 35.7714 24.4093 35.8555 24.343C35.9407 24.2756 36.0058 24.1815 36.0508 24.0607C36.0969 23.94 36.12 23.7985 36.12 23.6364C36.12 23.4742 36.0975 23.3333 36.0526 23.2138C36.0076 23.0942 35.9425 23.0019 35.8572 22.9368C35.772 22.8717 35.6684 22.8391 35.5465 22.8391C35.4222 22.8391 35.3175 22.8729 35.2322 22.9403C35.147 23.0078 35.0825 23.1013 35.0387 23.2209C34.9949 23.3404 34.973 23.4789 34.973 23.6364C34.973 23.795 34.9949 23.9353 35.0387 24.0572C35.0837 24.1779 35.1482 24.2726 35.2322 24.3413C35.3175 24.4087 35.4222 24.4425 35.5465 24.4425Z" fill="white"/>
<path d="M35.5447 44.0533C35.2642 44.0533 35.0227 43.9964 34.8203 43.8828C34.6191 43.768 34.464 43.6058 34.3551 43.3963C34.2462 43.1856 34.1918 42.9364 34.1918 42.6488C34.1918 42.3683 34.2462 42.122 34.3551 41.9102C34.464 41.6983 34.6173 41.5331 34.815 41.4148C35.0138 41.2964 35.247 41.2372 35.5146 41.2372C35.6945 41.2372 35.862 41.2662 36.017 41.3242C36.1733 41.381 36.3094 41.4669 36.4254 41.5817C36.5426 41.6965 36.6338 41.8409 36.6989 42.0149C36.764 42.1877 36.7965 42.3902 36.7965 42.6222V42.8299H34.4936V42.3612H36.0845C36.0845 42.2522 36.0608 42.1558 36.0135 42.0717C35.9661 41.9877 35.9004 41.922 35.8164 41.8746C35.7335 41.8261 35.6371 41.8018 35.527 41.8018C35.4122 41.8018 35.3104 41.8285 35.2216 41.8817C35.134 41.9338 35.0653 42.0043 35.0156 42.093C34.9659 42.1806 34.9405 42.2783 34.9393 42.386V42.8317C34.9393 42.9666 34.9641 43.0832 35.0138 43.1815C35.0647 43.2797 35.1364 43.3555 35.2287 43.4087C35.321 43.462 35.4305 43.4886 35.5572 43.4886C35.6412 43.4886 35.7182 43.4768 35.788 43.4531C35.8578 43.4295 35.9176 43.3939 35.9673 43.3466C36.017 43.2992 36.0549 43.2412 36.081 43.1726L36.7805 43.2188C36.745 43.3868 36.6722 43.5336 36.5621 43.6591C36.4532 43.7834 36.3124 43.8804 36.1396 43.9503C35.9679 44.0189 35.7696 44.0533 35.5447 44.0533Z" fill="white"/>
<path d="M69.7685 22.2727V22.8409H68.0852V22.2727H69.7685ZM68.4705 25V22.0756C68.4705 21.878 68.509 21.714 68.5859 21.5838C68.6641 21.4536 68.7706 21.3559 68.9055 21.2908C69.0405 21.2257 69.1938 21.1932 69.3654 21.1932C69.4814 21.1932 69.5874 21.2021 69.6832 21.2198C69.7803 21.2376 69.8525 21.2536 69.8999 21.2678L69.7649 21.8359C69.7353 21.8265 69.6986 21.8176 69.6548 21.8093C69.6122 21.801 69.5684 21.7969 69.5234 21.7969C69.4122 21.7969 69.3346 21.8229 69.2908 21.875C69.247 21.9259 69.2251 21.9975 69.2251 22.0898V25H68.4705Z" fill="white"/>
<path d="M18.8398 34L18.0977 31.2727H18.8629L19.2855 33.1051H19.3104L19.7507 31.2727H20.5018L20.9492 33.0945H20.9723L21.3878 31.2727H22.1513L21.4109 34H20.6101L20.1413 32.2848H20.1076L19.6388 34H18.8398ZM22.9969 34.6605C22.8892 34.6605 22.7909 34.6398 22.7021 34.5984C22.6134 34.5581 22.5429 34.4978 22.4909 34.4173C22.4388 34.3379 22.4127 34.2397 22.4127 34.1225C22.4127 34.0361 22.4281 33.9615 22.4589 33.8988C22.4897 33.8361 22.5347 33.7834 22.5938 33.7408C22.6542 33.6982 22.7264 33.6638 22.8105 33.6378C22.8957 33.6106 22.9904 33.5916 23.0945 33.581C23.2046 33.5691 23.2934 33.5585 23.3609 33.549C23.4284 33.5395 23.4775 33.5247 23.5083 33.5046C23.539 33.4833 23.5544 33.4508 23.5544 33.407V33.3679C23.5544 33.2661 23.5219 33.1862 23.4568 33.1282C23.3917 33.0702 23.3029 33.0412 23.1904 33.0412C23.0863 33.0412 22.9981 33.0649 22.9259 33.1122C22.8548 33.1584 22.8075 33.2187 22.7838 33.2933L22.4678 33.2525C22.508 33.1093 22.5915 32.9956 22.7181 32.9116C22.846 32.8263 23.0046 32.7837 23.194 32.7837C23.3183 32.7837 23.4337 32.805 23.5402 32.8477C23.6468 32.8903 23.7326 32.9554 23.7977 33.043C23.8628 33.1306 23.8953 33.2412 23.8953 33.375V34.625H23.5722V34.3374H23.5597C23.5148 34.4261 23.4449 34.5019 23.3502 34.5646C23.2567 34.6286 23.1389 34.6605 22.9969 34.6605ZM23.0821 34.4173C23.1744 34.4173 23.2567 34.396 23.3289 34.3533C23.4011 34.3119 23.4574 34.2545 23.4976 34.1811C23.539 34.1077 23.5597 34.0249 23.5597 33.9325V33.7035C23.5384 33.7189 23.5041 33.7337 23.4568 33.7479C23.4106 33.7621 23.3597 33.7739 23.3041 33.7834C23.2484 33.7929 23.1981 33.8005 23.1531 33.8065C23.0028 33.8254 22.8951 33.8603 22.83 33.9112C22.7661 33.9609 22.7341 34.0296 22.7341 34.1172C22.7341 34.2095 22.7673 34.2823 22.8335 34.3356C22.901 34.39 22.9839 34.4173 23.0821 34.4173ZM25.1515 34.6605C24.9775 34.6605 24.826 34.6209 24.697 34.5415C24.5692 34.4634 24.4703 34.3539 24.4005 34.2131C24.3306 34.0722 24.2957 33.9089 24.2957 33.723C24.2957 33.5395 24.3306 33.3774 24.4005 33.2365C24.4715 33.0945 24.5692 32.9838 24.6934 32.9045C24.8189 32.824 24.9633 32.7837 25.1267 32.7837C25.277 32.7837 25.4131 32.8192 25.5351 32.8903C25.657 32.9601 25.7541 33.0619 25.8263 33.1957C25.8985 33.3294 25.9346 33.4916 25.9346 33.6822V33.7958H24.4431V33.5774H25.6167C25.6167 33.4756 25.596 33.3851 25.5546 33.3058C25.5132 33.2253 25.4558 33.1619 25.3824 33.1158C25.309 33.0696 25.2261 33.0465 25.1338 33.0465C25.0367 33.0465 24.9503 33.072 24.8746 33.1229C24.7988 33.1738 24.739 33.2418 24.6952 33.3271C24.6526 33.4123 24.6313 33.5064 24.6313 33.6094V33.794C24.6301 33.9728 24.6769 34.1184 24.7716 34.2308C24.8675 34.3433 24.9965 34.3995 25.1586 34.3995C25.2344 34.3995 25.3013 34.3871 25.3593 34.3622C25.4185 34.3374 25.4676 34.3054 25.5067 34.2663C25.5457 34.2285 25.5741 34.1882 25.5919 34.1456L25.8991 34.1829C25.86 34.3178 25.776 34.4309 25.6469 34.522C25.5179 34.6143 25.3528 34.6605 25.1515 34.6605Z" fill="white"/>
<path d="M18.8398 45L18.0977 42.2727H18.8629L19.2855 44.1051H19.3104L19.7507 42.2727H20.5018L20.9492 44.0945H20.9723L21.3878 42.2727H22.1513L21.4109 45H20.6101L20.1413 43.2848H20.1076L19.6388 45H18.8398ZM22.5317 45.625V43.2031H22.8655V44.169H22.8797C22.9069 44.1027 22.9442 44.0406 22.9916 43.9826C23.0389 43.9234 23.0987 43.8755 23.1709 43.8388C23.2443 43.8021 23.3325 43.7837 23.4355 43.7837C23.5716 43.7837 23.6941 43.8216 23.803 43.8974C23.9119 43.9719 23.9983 44.0797 24.0622 44.2205C24.1262 44.3602 24.1581 44.5277 24.1581 44.723C24.1581 44.9148 24.1267 45.0805 24.064 45.2202C24.0025 45.361 23.9172 45.4693 23.8083 45.5451C23.7006 45.622 23.5763 45.6605 23.4355 45.6605C23.336 45.6605 23.2496 45.6422 23.1762 45.6055C23.1028 45.5688 23.0419 45.5214 22.9933 45.4634C22.9448 45.4054 22.9069 45.3433 22.8797 45.277H22.8655V45.625H22.5317ZM22.8602 44.7177C22.8602 44.913 22.9022 45.0722 22.9862 45.1953C23.0715 45.3196 23.1887 45.3817 23.3378 45.3817C23.4396 45.3817 23.526 45.3527 23.597 45.2947C23.6681 45.2367 23.7225 45.1574 23.7604 45.0568C23.7983 44.9562 23.8172 44.8432 23.8172 44.7177C23.8172 44.5271 23.7752 44.3697 23.6911 44.2454C23.6083 44.1211 23.4905 44.0589 23.3378 44.0589C23.2384 44.0589 23.1526 44.0868 23.0803 44.1424C23.0093 44.198 22.9549 44.2756 22.917 44.375C22.8791 44.4744 22.8602 44.5887 22.8602 44.7177ZM25.3371 45.6605C25.1631 45.6605 25.0116 45.6209 24.8825 45.5415C24.7547 45.4634 24.6559 45.3539 24.586 45.2131C24.5162 45.0722 24.4813 44.9089 24.4813 44.723C24.4813 44.5395 24.5162 44.3774 24.586 44.2365C24.657 44.0945 24.7547 43.9838 24.879 43.9045C25.0045 43.824 25.1489 43.7837 25.3122 43.7837C25.4626 43.7837 25.5987 43.8192 25.7206 43.8903C25.8425 43.9601 25.9396 44.0619 26.0118 44.1957C26.084 44.3294 26.1201 44.4916 26.1201 44.6822V44.7958H24.6286V44.5774H25.8023C25.8023 44.4756 25.7816 44.3851 25.7401 44.3058C25.6987 44.2253 25.6413 44.1619 25.5679 44.1158C25.4945 44.0696 25.4117 44.0465 25.3193 44.0465C25.2223 44.0465 25.1359 44.072 25.0601 44.1229C24.9843 44.1738 24.9246 44.2418 24.8808 44.3271C24.8382 44.4123 24.8169 44.5064 24.8169 44.6094V44.794C24.8157 44.9728 24.8624 45.1184 24.9571 45.2308C25.053 45.3433 25.182 45.3995 25.3442 45.3995C25.42 45.3995 25.4868 45.3871 25.5448 45.3622C25.604 45.3374 25.6531 45.3054 25.6922 45.2663C25.7313 45.2285 25.7597 45.1882 25.7774 45.1456L26.0846 45.1829C26.0455 45.3178 25.9615 45.4309 25.8325 45.522C25.7035 45.6143 25.5383 45.6605 25.3371 45.6605Z" fill="white"/>
</svg>
